<svg version="1.1" xmlns="http://www.w3.org/2000/svg" viewBox="0 0 1948.0751158332969 1170.8526158981304" width="3896.1502316665938" height="2341.7052317962607">
  <!-- svg-source:excalidraw -->
  
  <defs>
    <style>
      @font-face {
        font-family: "Virgil";
        src: url("https://excalidraw.com/Virgil.woff2");
      }
      @font-face {
        font-family: "Cascadia";
        src: url("https://excalidraw.com/Cascadia.woff2");
      }
    </style>
  </defs>
  <g stroke-linecap="round" transform="translate(1763.5820615271682 384.55454014766156) rotate(0 51.66483083326557 53.42613188439964)"><path d="M80.43 10.39 C87.58 14.78, 92.87 22.31, 96.73 30.26 C100.59 38.22, 104.12 49.4, 103.59 58.1 C103.06 66.81, 98.41 75.22, 93.53 82.5 C88.65 89.79, 82.04 98.04, 74.32 101.81 C66.6 105.57, 55.53 105.96, 47.23 105.1 C38.93 104.25, 31.32 101.6, 24.5 96.68 C17.69 91.75, 10.1 83.33, 6.33 75.55 C2.56 67.78, 1.78 58.73, 1.89 50 C2.01 41.26, 2.9 30.45, 7 23.15 C11.1 15.85, 18.7 10.12, 26.52 6.22 C34.33 2.31, 42.23 -3.64, 53.88 -0.29 C65.53 3.06, 88.17 17.29, 96.43 26.31 C104.69 35.33, 104.2 53.28, 103.45 53.84 M69.51 4.26 C78.26 5.58, 86.29 8.94, 92.24 15.35 C98.18 21.77, 104.22 33.73, 105.2 42.75 C106.18 51.76, 101.05 60.52, 98.13 69.45 C95.21 78.37, 93.7 90.16, 87.68 96.3 C81.67 102.45, 71.24 104.6, 62.03 106.31 C52.82 108.03, 40.73 109.05, 32.43 106.58 C24.14 104.12, 17.39 98.45, 12.28 91.54 C7.18 84.63, 3.32 74.04, 1.8 65.11 C0.29 56.17, 0.42 46.79, 3.19 37.92 C5.96 29.06, 11.95 18.13, 18.42 11.89 C24.89 5.65, 33.95 2.23, 42.04 0.49 C50.12 -1.25, 62.59 0.88, 66.93 1.46 C71.28 2.03, 67.84 3.3, 68.11 3.93" stroke="#000" stroke-width="2" fill="none"></path></g><g stroke-linecap="round" transform="translate(1736.4483193540996 520.8455279163096) rotate(0 79.16106567116628 47.54279745848464)"><path d="M2.32 -0.79 C39.04 -0.23, 87.53 -3.29, 160.2 0.68 M-0.65 0.7 C59.44 -1.41, 123.13 -1.2, 159.09 -1.97 M156.26 -3.69 C158.83 35.84, 157.14 73.18, 155.37 97.4 M158.97 -1.8 C158.63 33.86, 158.85 67.04, 156.54 97.02 M160.7 98.9 C111.04 94.81, 59.8 97.43, -0.92 98.7 M159.29 95.75 C105.77 96.09, 54.86 94.89, -0.87 95.34 M-2.77 97.79 C0.12 66.17, 0.3 34.7, -1.59 -2.43 M-0.74 93.21 C-1.36 73.02, 0.32 51.27, -0.16 0.2" stroke="#000" stroke-width="2" fill="none"></path></g><g stroke-linecap="round" transform="translate(1808.440715045685 558.7923085142411) rotate(0 7.846869483439264 7.846869483439207)"><path d="M1.38 3.12 C2.43 1.94, 6.05 2.02, 7.67 1.72 C9.29 1.43, 9.92 0.53, 11.11 1.35 C12.3 2.18, 14.45 5.3, 14.82 6.68 C15.19 8.06, 13.77 8.5, 13.32 9.65 C12.88 10.79, 13.28 12.94, 12.13 13.57 C10.98 14.19, 7.92 13.71, 6.43 13.41 C4.93 13.11, 4.44 12.99, 3.14 11.75 C1.84 10.51, -1.56 7.81, -1.38 5.96 C-1.21 4.12, 2.39 1.66, 4.2 0.68 C6 -0.29, 9.21 0.32, 9.45 0.12 M11.14 2.25 C11.85 3.35, 11.76 5.04, 12.65 6.74 C13.55 8.43, 16.41 11.53, 16.51 12.44 C16.61 13.34, 14.53 11.67, 13.27 12.18 C12.01 12.68, 11.34 15.56, 8.97 15.46 C6.59 15.37, 0.23 12.49, -0.97 11.62 C-2.16 10.76, 1.27 11.71, 1.8 10.28 C2.32 8.84, 1.8 4.3, 2.18 3.01 C2.56 1.72, 2.53 2.38, 4.07 2.55 C5.62 2.71, 9.99 4.01, 11.45 3.99 C12.91 3.97, 12.69 2.54, 12.82 2.44" stroke="#000" stroke-width="2" fill="none"></path></g><g stroke-linecap="round"><g transform="translate(1769.3527943250733 401.390515672917) rotate(0 -1.0375062078850306 23.929746450791527)"><path d="M-0.55 -2.14 C-0.36 5.92, 2.12 41.48, 2.22 50 M-4.3 2.87 C-4.51 10.04, 0.06 39.38, 0.36 46.26" stroke="#000" stroke-width="2" fill="none"></path></g></g><g stroke-linecap="round"><g transform="translate(1781.8565836641396 394.71920381798054) rotate(0 -0.1214170977473259 22.255092539861778)"><path d="M-2.14 0.68 C-2.24 7.96, 0.64 35.7, 0.99 43.09 M1.9 -1.41 C1.48 6.26, 0.53 37.62, 0.02 45.92" stroke="#000" stroke-width="2" fill="none"></path></g></g><g stroke-linecap="round"><g transform="translate(1788.6130407791734 390.9288523769194) rotate(0 0.8905297047148224 26.43223540048848)"><path d="M0.68 2.34 C0.54 11.32, -1.41 43.31, -1.44 51.72 M-2.39 1.15 C-1.55 9.48, 3.95 39.51, 4.17 47.42" stroke="#000" stroke-width="2" fill="none"></path></g></g><g stroke-linecap="round"><g transform="translate(1801.805293499463 381.12838657257237) rotate(0 0.8672482367118164 31.817221678391263)"><path d="M2.34 -1.46 C2.84 9.27, 0.92 54.4, 0.85 65.1 M0.17 3.92 C0.61 13.68, -0.88 50.2, -0.68 60.34" stroke="#000" stroke-width="2" fill="none"></path></g></g><g stroke-linecap="round"><g transform="translate(1811.5325419463434 383.91773770448515) rotate(0 0.48667061729872785 33.28248646517113)"><path d="M-1.46 1.31 C-1.57 12.09, 0.17 56.5, 0.01 67.01 M2.94 -0.45 C2.44 10.82, -2.05 51.99, -1.97 63.3" stroke="#000" stroke-width="2" fill="none"></path></g></g><g stroke-linecap="round"><g transform="translate(1822.4527678940522 386.9609308599396) rotate(0 0.17430727238956933 26.8306950620715)"><path d="M1.31 0.47 C1.21 9.52, 2.1 43.92, 1.73 52.81 M-1.42 -1.74 C-1.89 7.75, 1.02 45.7, 0.79 55.4" stroke="#000" stroke-width="2" fill="none"></path></g></g><g stroke-linecap="round"><g transform="translate(1829.16288951143 386.5309337884702) rotate(0 -0.0072547380400465045 30.052676163835002)"><path d="M0.47 2.39 C0.27 11.4, -2.31 46.35, -2.66 55.38 M-2.71 1.22 C-1.89 10.57, 2.9 50.49, 2.7 58.89" stroke="#000" stroke-width="2" fill="none"></path></g></g><g stroke-linecap="round"><g transform="translate(1839.369368562151 391.3068082452555) rotate(0 1.0329359752219034 26.213824682856114)"><path d="M2.39 -1.92 C2.52 6.54, 1.96 42.57, 2.12 51.21 M0.24 3.21 C-0.14 12.02, -0.54 46.24, -0.24 54.35" stroke="#000" stroke-width="2" fill="none"></path></g></g><g stroke-linecap="round"><g transform="translate(1851.932538592017 403.1611067100399) rotate(0 -1.1483713865045502 23.593600052184627)"><path d="M-1.92 -0.23 C-2.3 7.71, -1.6 42.19, -1.8 50.01 M2.23 -2.83 C1.35 5.47, -4.59 36.97, -4.53 45.53" stroke="#000" stroke-width="2" fill="none"></path></g></g><g stroke-linecap="round"><g transform="translate(1980.0941286259008 529.0185244648513) rotate(0 -165.04351731015015 -30.268981842167705)"><path d="M-103.95 -20.66 C-105.88 -22.4, -109.24 -28.66, -112.92 -32.12 C-116.6 -35.57, -120.89 -41.06, -126.01 -41.4 C-131.13 -41.74, -136.44 -36.48, -143.64 -34.15 C-150.84 -31.81, -161.49 -26.88, -169.2 -27.39 C-176.9 -27.91, -183.52 -34.41, -189.88 -37.23 C-196.25 -40.05, -203.53 -45.32, -207.39 -44.32 C-211.24 -43.33, -209.89 -35.28, -213.02 -31.26 C-216.14 -27.24, -225.97 -22.6, -226.14 -20.23 C-226.31 -17.85, -219 -17.14, -214.02 -17.03 C-209.05 -16.93, -198.88 -19.44, -196.29 -19.6 M-107.52 -23.63 C-109.95 -24.91, -112.47 -25.93, -114.62 -29.67 C-116.78 -33.42, -115.52 -45.86, -120.44 -46.08 C-125.37 -46.29, -136.65 -33.01, -144.17 -30.95 C-151.68 -28.9, -158.4 -33.54, -165.53 -33.73 C-172.65 -33.93, -180.04 -31.04, -186.9 -32.13 C-193.75 -33.22, -201.96 -40.19, -206.65 -40.26 C-211.35 -40.33, -212.57 -36.73, -215.08 -32.56 C-217.59 -28.4, -222.02 -17.84, -221.73 -15.28 C-221.44 -12.72, -217.81 -16.83, -213.33 -17.22 C-208.85 -17.62, -198.11 -17.43, -194.84 -17.65" stroke="#000" stroke-width="2" fill="none"></path></g></g><g stroke-linecap="round"><g transform="translate(1753.2136731594624 539.7025407745838) rotate(0 -51.553405143082955 -58.169437784271054)"><path d="M-33.42 -35.35 C-34.51 -36.66, -41.21 -40.66, -40.97 -44.43 C-40.73 -48.21, -32.8 -52.34, -31.99 -57.99 C-31.19 -63.64, -32.2 -74.71, -36.14 -78.32 C-40.07 -81.93, -49.49 -81.38, -55.58 -79.66 C-61.68 -77.94, -69.96 -72.73, -72.73 -68 C-75.49 -63.26, -74.45 -54.89, -72.17 -51.24 C-69.89 -47.59, -63.61 -45.91, -59.04 -46.08 C-54.48 -46.25, -47.23 -49.66, -44.8 -52.24 C-42.37 -54.82, -42.78 -58.54, -44.48 -61.58 C-46.18 -64.62, -52.48 -70.65, -55 -70.49 C-57.53 -70.32, -60.24 -63.2, -59.65 -60.61 C-59.06 -58.01, -52.86 -55.94, -51.44 -54.93 M-28.72 -37.28 C-28.77 -38.3, -35.05 -38.95, -35.75 -42.07 C-36.46 -45.19, -33.08 -50.14, -32.95 -55.99 C-32.82 -61.85, -30.84 -73.36, -34.97 -77.21 C-39.09 -81.06, -51.76 -81.52, -57.68 -79.09 C-63.6 -76.65, -68.08 -66.77, -70.48 -62.59 C-72.88 -58.42, -73.47 -56.63, -72.06 -54.06 C-70.64 -51.49, -67.22 -48.18, -61.96 -47.17 C-56.71 -46.16, -43.9 -45.52, -40.53 -47.99 C-37.17 -50.45, -39.44 -58.5, -41.79 -61.95 C-44.14 -65.4, -51.17 -69.94, -54.62 -68.67 C-58.07 -67.4, -63.21 -56.43, -62.49 -54.34 C-61.77 -52.25, -52.06 -56.19, -50.31 -56.14" stroke="#000" stroke-width="2" fill="none"></path></g></g><g stroke-linecap="round"><g transform="translate(1842.0351451808083 583.7873399859168) rotate(348.6802301431761 13.920298669654471 -32.64913003775456)"><path d="M0.64 -25.05 C3.72 -28.4, 13.76 -39.96, 17.92 -43.89 C22.08 -47.83, 23.9 -49.25, 25.61 -48.65 C27.32 -48.05, 28.65 -42.92, 28.21 -40.3 C27.76 -37.67, 26.91 -36.39, 22.95 -32.89 C18.98 -29.38, 8.26 -21.83, 4.42 -19.28 C0.58 -16.73, 0.81 -16.85, -0.07 -17.58 C-0.95 -18.31, -0.47 -23.04, -0.86 -23.65 M-2.27 -20.06 C1.69 -24.15, 17.45 -42.46, 23.05 -48.05 C28.66 -53.64, 30.63 -54.11, 31.33 -53.59 C32.04 -53.07, 27.89 -48.37, 27.29 -44.95 C26.7 -41.53, 31.15 -38.13, 27.77 -33.05 C24.38 -27.97, 11.3 -17.9, 6.97 -14.5 C2.64 -11.09, 3.56 -10.89, 1.81 -12.62 C0.05 -14.35, -3.46 -23.04, -3.57 -24.88" stroke="#000" stroke-width="2" fill="none"></path></g></g><g stroke-linecap="round"><g transform="translate(1856.1551372661606 570.3818708171239) rotate(348.6802301431761 -7.640752144496901 -24.923081184547243)"><path d="M-9.74 -18.46 C-10.6 -20.2, -12.68 -22.93, -13.61 -25.62 C-14.55 -28.3, -16.15 -32.89, -15.35 -34.57 C-14.56 -36.25, -11.07 -36.88, -8.86 -35.7 C-6.65 -34.53, -3.13 -29.26, -2.09 -27.54 M-5.73 -13.55 C-6.74 -15.09, -13.19 -19.86, -15 -23.1 C-16.81 -26.33, -16.48 -31.23, -16.58 -32.96 C-16.67 -34.68, -18.64 -34.37, -15.54 -33.45 C-12.45 -32.52, -0.48 -28.39, 1.99 -27.41" stroke="#000" stroke-width="2" fill="none"></path></g></g><g stroke-linecap="round"><g transform="translate(1876.3565615830971 582.7492207738278) rotate(168.6802301431761 -7.097516193810634 -22.430503534999588)"><path d="M-9.89 -12.41 C-11.53 -13.2, -14.86 -18.44, -16.41 -20.89 C-17.96 -23.35, -19.96 -25.21, -19.2 -27.13 C-18.43 -29.05, -15.17 -32.94, -11.84 -32.41 C-8.51 -31.89, -1.68 -25.65, 0.77 -23.96 M-5.96 -14.03 C-6.81 -15.48, -9.8 -22.44, -11.12 -25.32 C-12.44 -28.19, -13.78 -30.35, -13.86 -31.28 C-13.94 -32.21, -14.77 -32.03, -11.61 -30.89 C-8.44 -29.75, 3.56 -25.38, 5.15 -24.44" stroke="#000" stroke-width="2" fill="none"></path></g></g><g stroke-linecap="round"><g transform="translate(1893.2670568749572 547.8016832291995) rotate(0 20.941883938306546 -77.52371156954726)"><path d="M-2.92 -47.39 C-3.12 -51.48, 0.26 -64.11, -0.47 -80.32 M-0.56 -50.41 C1.86 -56.98, 0.72 -67.53, 2.24 -78.44 M3.96 -80 C9.55 -71.92, 6.85 -68.19, 16.09 -58.65 M3.17 -77.07 C7.06 -71.58, 9.69 -67.39, 14.76 -61.63 M12.35 -63.99 C13.83 -69.35, 15.76 -80.35, 9.48 -88.84 M12.68 -63.05 C12.08 -73.5, 13.33 -82.69, 11.51 -93.42 M12.24 -91.83 C17.03 -87.7, 19.74 -88.76, 29.53 -83.53 M12.9 -93.12 C16.72 -89.83, 24.65 -87.79, 30.81 -85.44 M25.32 -89.69 C35.45 -95.64, 35.69 -102.05, 44.81 -104.19 M28.71 -87.63 C33.75 -92.75, 36.73 -99.62, 41.96 -107.65" stroke="#000" stroke-width="2" fill="none"></path></g></g><g stroke-linecap="round"><g transform="translate(1752.8253322721857 579.9811846644484) rotate(0 15.526704571525897 16.873006127426493)"><path d="M1.55 -3.94 C5.38 4.15, 0.4 7.96, 3.24 23.85 M-1.47 1.16 C2.68 5.66, 2.95 12.92, 5.12 23.68 M4.02 26.06 C10.29 15.57, 12.84 15.81, 20.16 10.18 M6.55 24.38 C10.8 19.23, 13.88 15.4, 17.58 9.29 M15.31 10.63 C21.27 21.47, 21.7 24.28, 32.53 37.69 M16.25 8.9 C19.74 18.75, 24.28 25.34, 27.95 35.41" stroke="#000" stroke-width="2" fill="none"></path></g></g><g stroke-linecap="round"><g transform="translate(1858.0622730166979 556.3531249554829) rotate(0 1.5660700264420484 1.4244828125005142)"><path d="M-0.89 0.82 C1.11 0.19, 2.21 0.86, 4.02 2.13 M0.26 0.21 C0.95 0.59, 2.27 1.01, 3.98 2.64" stroke="#000" stroke-width="2" fill="none"></path></g></g><g stroke-linecap="round"><g transform="translate(1869.8325772418539 552.5450853532232) rotate(0 -2.1851977044311752 -2.643619150761225)"><path d="M1.29 -0.32 C-2.23 -1.93, -3.7 -1.97, -5.66 -5.11 M0.33 -0.18 C-1.58 -1.03, -3.39 -2.3, -4.85 -4.49" stroke="#000" stroke-width="2" fill="none"></path></g></g><g stroke-linecap="round"><g transform="translate(1779.487970029792 439.0791454320005) rotate(0 -30.345975340076052 0.33377407955080685)"><path d="M-17.44 -10.96 C-17.89 -12.77, -18.52 -22.36, -21.59 -23.9 C-24.66 -25.44, -32.07 -23.25, -35.87 -20.23 C-39.67 -17.2, -43.38 -10.52, -44.38 -5.76 C-45.39 -0.99, -44.68 4.08, -41.9 8.36 C-39.13 12.64, -31.36 18.17, -27.75 19.93 C-24.15 21.68, -21.73 24.34, -20.28 18.88 C-18.83 13.42, -19.31 -8.21, -19.08 -12.85 M-19.51 -13.78 C-19.17 -14.98, -14.45 -20.56, -16.27 -21.06 C-18.09 -21.55, -25.76 -19.7, -30.44 -16.76 C-35.11 -13.82, -43.18 -7.59, -44.3 -3.44 C-45.42 0.72, -39.18 4.56, -37.16 8.16 C-35.14 11.76, -35.18 15.56, -32.18 18.17 C-29.18 20.78, -21 27.93, -19.14 23.84 C-17.28 19.74, -20.49 -0.49, -21.01 -6.38" stroke="#000" stroke-width="2" fill="none"></path></g></g><g stroke-linecap="round"><g transform="translate(1865.144498817087 437.8494537052934) rotate(0 10.406509707572809 -1.622027500739506)"><path d="M-0.97 -12.32 C-0.81 -15.2, -4.54 -23.46, -2.15 -25.04 C0.23 -26.62, 9.3 -24.98, 13.34 -21.81 C17.38 -18.64, 21.27 -11.66, 22.09 -6.02 C22.91 -0.38, 20.25 8.05, 18.26 12.04 C16.26 16.04, 13.45 16.5, 10.14 17.95 C6.82 19.39, 0.52 25.25, -1.64 20.72 C-3.81 16.19, -3.29 -4.3, -2.85 -9.24 M3.88 -7.24 C5.22 -8.65, 2.13 -20.81, 3.47 -22.81 C4.8 -24.8, 8.74 -22.36, 11.89 -19.2 C15.04 -16.04, 20.66 -9.35, 22.39 -3.84 C24.13 1.66, 25.11 10.68, 22.3 13.84 C19.49 17, 9.35 14.42, 5.53 15.12 C1.71 15.82, -0.04 22.13, -0.63 18.03 C-1.22 13.94, 2.26 -4.54, 2 -9.45" stroke="#000" stroke-width="2" fill="none"></path></g></g><g stroke-linecap="round"><g transform="translate(1749.9006468124353 466.8839156851126) rotate(0 58.728278919628906 -79.72979407233012)"><path d="M-2 -52.25 C-2.08 -57.35, -2.9 -73.28, 2.08 -82.04 C7.05 -90.79, 18.34 -99.7, 27.84 -104.79 C37.34 -109.88, 48.28 -112.8, 59.08 -112.59 C69.87 -112.39, 84.13 -107.97, 92.61 -103.56 C101.09 -99.15, 105.79 -93.98, 109.95 -86.13 C114.1 -78.28, 116.25 -62.06, 117.54 -56.47 M2.11 -46.87 C2.64 -52.8, 3.17 -77.5, 7.08 -86.69 C10.98 -95.87, 16.84 -97.89, 25.53 -101.96 C34.22 -106.03, 48.48 -111.11, 59.23 -111.11 C69.98 -111.1, 81.07 -105.61, 90.02 -101.94 C98.96 -98.27, 107.99 -97.35, 112.91 -89.09 C117.83 -80.83, 119.05 -58.44, 119.55 -52.37" stroke="#000" stroke-width="2" fill="none"></path></g></g><g stroke-linecap="round"><g transform="translate(1751.399105826587 459.042135479677) rotate(0 21.839491250870196 10.504259664373052)"><path d="M-1.44 -2.58 C-0.31 -0.37, 3.22 7.34, 6.16 11.26 C9.11 15.17, 12.49 19.05, 16.21 20.91 C19.92 22.76, 23.65 23.55, 28.46 22.36 C33.28 21.18, 42.72 14.95, 45.12 13.79 M2.97 2.19 C3.85 4.98, 2.43 10.82, 4.29 14.39 C6.14 17.95, 10.17 23.12, 14.11 23.59 C18.05 24.06, 23.22 18.75, 27.93 17.21 C32.63 15.67, 39.38 14.97, 42.35 14.34" stroke="#000" stroke-width="2" fill="none"></path></g></g><g stroke-linecap="round" transform="translate(1796.6741201392383 467.7846831069978) rotate(0 9.393605606048254 4.501102686231491)"><path d="M4.89 1.4 C6.88 1.06, 11.7 -0.45, 13.71 -0.19 C15.72 0.07, 16.44 1.92, 16.96 2.98 C17.47 4.03, 16.92 5.14, 16.81 6.15 C16.69 7.16, 17.31 8.83, 16.25 9.01 C15.19 9.19, 12.3 7.41, 10.45 7.22 C8.6 7.03, 7.15 8.31, 5.14 7.87 C3.14 7.43, -1.15 5.2, -1.58 4.57 C-2.01 3.94, 0.61 4.78, 2.55 4.08 C4.48 3.38, 8.53 0.68, 10.04 0.36 C11.54 0.05, 11.65 1.89, 11.56 2.2 M13.21 1.14 C14.67 1.34, 14.7 2.14, 15.53 2.57 C16.36 3.01, 18.3 2.83, 18.18 3.74 C18.05 4.66, 16.07 6.82, 14.78 8.05 C13.48 9.27, 12.65 11.43, 10.43 11.11 C8.21 10.79, 2.79 6.85, 1.44 6.13 C0.1 5.41, 2.45 7.18, 2.36 6.8 C2.28 6.42, 0.73 5.12, 0.94 3.86 C1.15 2.6, 2.11 0.21, 3.61 -0.76 C5.11 -1.72, 8.45 -1.93, 9.94 -1.94 C11.44 -1.96, 12.5 -0.8, 12.58 -0.85" stroke="#000" stroke-width="2" fill="none"></path></g><g stroke-linecap="round"><g transform="translate(2049.8120086361187 618.963798342192) rotate(0 -238.12526597737167 0.5314286527381569)"><path d="M-156.73 -4.25 C-152.9 -3.64, -138.37 -4.42, -135.87 -2.21 C-133.37 0, -137.35 7.52, -141.73 9.01 C-146.11 10.49, -151.32 6.49, -162.15 6.69 C-172.99 6.89, -191.04 9.65, -206.73 10.2 C-222.42 10.76, -236.99 10.3, -256.3 10 C-275.6 9.7, -308.51 11.11, -322.56 8.41 C-336.62 5.7, -339.89 -3.59, -340.62 -6.21 C-341.36 -8.82, -328.4 -6.96, -326.98 -7.28 M-159.81 -7.22 C-156.27 -5.96, -142.36 -0.93, -138.39 1 C-134.43 2.92, -132.27 3.04, -136.02 4.36 C-139.77 5.68, -149.86 7.71, -160.87 8.92 C-171.88 10.13, -186.49 11.75, -202.07 11.62 C-217.65 11.49, -234.63 9.07, -254.33 8.14 C-274.04 7.2, -305.68 7.3, -320.31 5.99 C-334.94 4.68, -340.57 3.03, -342.09 0.27 C-343.62 -2.48, -331.21 -8.9, -329.45 -10.55" stroke="#000" stroke-width="2" fill="none"></path></g></g><g stroke-linecap="round" transform="translate(1096.1818151028856 10) rotate(0 38.333333333333286 78.24742268041243)"><path d="M0.3 1.39 C17.24 -0.93, 37.95 0.04, 76.38 -1.75 M-0.44 0.92 C29.4 -1.05, 58.95 -1.4, 77.55 0.2 M74.75 1.89 C75.41 34.69, 78.11 68.67, 76.28 154.8 M76.02 -0.1 C77.09 46.18, 77.27 90.54, 76.26 156.47 M78.62 155.93 C55.25 156.73, 31.57 156.66, 0.82 157.4 M77.03 156.6 C56.46 155.67, 34.25 155.6, -0.18 157.3 M-0.13 157.9 C-2.16 113.44, 0.19 71.54, 1.77 -0.54 M-0.27 156.3 C0.9 119.63, 0.16 84.02, -0.94 -0.17" stroke="#000000" stroke-width="1" fill="none"></path></g><g stroke-linecap="round" transform="translate(1111.1989972334707 22.64604810996559) rotate(0 22.920962199312754 3.951890034364272)"><path d="M1.39 -1.85 C17.21 -0.3, 36.35 -0.36, 44.09 1.71 M0.92 -0.16 C17.1 0.02, 34.31 1.08, 46.04 -0.86 M46.59 -0.55 C46.26 2.96, 46.48 4.73, 45.17 7.82 M45.8 -0.39 C46.21 2.76, 45.87 6, 45.83 7.85 M45.28 8.38 C31.93 7.04, 17.05 9.17, 0.9 7.38 M45.94 8.7 C28.38 7.65, 11.13 7.89, 0.8 7.65 M0.56 7.6 C-0.05 5.45, 0.39 2.44, -0.21 -0.52 M-0.08 7.94 C-0.03 5.68, 0.35 3.62, -0.07 -0.34" stroke="#000000" stroke-width="1" fill="none"></path></g><g stroke-linecap="round" transform="translate(1113.5701312540875 54.26116838487974) rotate(0 7.11340206185568 7.11340206185567)"><path d="M5.26 -0.67 C6.8 -0.96, 9.57 0.81, 11.1 1.55 C12.62 2.3, 13.75 2.56, 14.38 3.79 C15.01 5.02, 15.49 7.41, 14.86 8.92 C14.24 10.43, 12.17 11.81, 10.62 12.84 C9.07 13.86, 6.96 15.34, 5.55 15.07 C4.15 14.79, 3.09 12.59, 2.19 11.18 C1.28 9.78, 0.4 7.86, 0.11 6.64 C-0.19 5.43, -0.42 4.85, 0.4 3.87 C1.22 2.89, 3.97 1.22, 5.02 0.77 C6.07 0.31, 6.6 1.26, 6.71 1.13 M5.76 -0.14 C6.73 -0.03, 8.73 1.91, 9.91 2.87 C11.09 3.84, 12.35 4.42, 12.84 5.66 C13.33 6.9, 13.38 8.9, 12.85 10.29 C12.33 11.68, 11.21 13.15, 9.7 14 C8.18 14.85, 5.27 15.83, 3.78 15.39 C2.29 14.95, 1.25 13.05, 0.74 11.36 C0.23 9.68, 0.36 6.76, 0.72 5.29 C1.07 3.82, 1.74 3.48, 2.86 2.54 C3.97 1.59, 6.56 0.19, 7.4 -0.38 C8.23 -0.96, 7.87 -1.12, 7.85 -0.91" stroke="#000000" stroke-width="1" fill="none"></path></g><g stroke-linecap="round"><g transform="translate(1111.9415818108212 110.07673032348032) rotate(0 21.50515912415085 0.5759926335247227)"><path d="M-1.11 -0.58 C6.21 -0.72, 36.59 0.07, 44.12 0 M0.51 1.72 C7.65 1.72, 35.98 1.87, 43.1 1.53" stroke="#000000" stroke-width="1" fill="none"></path></g></g><g stroke-linecap="round"><g transform="translate(1112.712188977147 122.80324496988862) rotate(0 21.837112812116743 0.006486293720081804)"><path d="M-0.58 -0.14 C6.65 0.02, 36.96 -0.37, 44.26 -0.17 M1.31 -1.26 C8.32 -0.82, 35.93 1.19, 43.31 1.27" stroke="#000000" stroke-width="1" fill="none"></path></g></g><g stroke-linecap="round"><g transform="translate(1110.9014488070143 133.91866982329475) rotate(0 21.207093060958186 -0.5333561230123038)"><path d="M-0.14 0 C7.39 -0.08, 36.52 -1.22, 44.09 -1.05 M-1.67 -1.05 C5.78 -0.96, 35.26 -0.1, 43.05 -0.06" stroke="#000000" stroke-width="1" fill="none"></path></g></g><g stroke-linecap="round" transform="translate(1096.177289284377 225.09051637017853) rotate(0 38.333333333333286 78.24742268041243)"><path d="M-2 1.75 C22.7 -1.54, 42.81 -2.67, 77.68 0.57 M0.33 -0.77 C28.18 -0.11, 56.16 -0.15, 76.5 0.5 M76.44 -1.71 C76.29 62.19, 75.89 122.43, 76.06 156.77 M75.75 -0.12 C78.17 40.3, 78.39 80.88, 76.24 157.16 M76.81 155.05 C51.03 156.61, 23.92 158.46, 1.87 157.03 M77.53 156.9 C49.31 156.22, 20.08 155.82, -0.56 156.42 M-0.21 158.32 C-2.16 95.87, -0.03 34.57, 1.87 0.42 M0.92 156.2 C0.87 98.88, -0.44 41.11, -0.09 -0.8" stroke="#000000" stroke-width="1" fill="none"></path></g><g stroke-linecap="round" transform="translate(1111.194471414962 237.73656448014412) rotate(0 22.920962199312754 3.9518900343642684)"><path d="M1.75 1.2 C16.6 0.26, 32.84 1.47, 46.42 1.42 M-0.77 -0.26 C11.04 -0.87, 21.44 -0.32, 46.35 0.9 M45.16 0.4 C46.33 1.91, 46.02 3.1, 45.95 7.59 M45.79 0.27 C45.77 3.14, 45.73 5.39, 46.1 8.04 M44.4 7.83 C35.49 6.33, 27.05 9.8, 0.54 9.24 M46.24 8.68 C34.22 7.99, 22.24 7.74, -0.07 8.82 M0.72 7.47 C0.28 5.4, 0.26 2.83, 0.17 0.57 M-0.12 8.16 C0.27 5.38, 0.43 3.36, -0.32 -0.18" stroke="#000000" stroke-width="1" fill="none"></path></g><g stroke-linecap="round" transform="translate(1113.5656054355788 269.3516847550583) rotate(0 7.11340206185568 7.113402061855666)"><path d="M6.25 0.42 C7.78 0.09, 9.85 -0.59, 11.26 0.16 C12.66 0.9, 14.39 3.38, 14.69 4.88 C15 6.38, 13.63 7.88, 13.08 9.15 C12.53 10.42, 12.49 11.68, 11.41 12.49 C10.33 13.29, 8.12 13.94, 6.6 13.98 C5.07 14.01, 3.51 13.78, 2.26 12.69 C1.02 11.6, -0.75 9.25, -0.88 7.43 C-1.02 5.62, -0.05 2.93, 1.46 1.79 C2.97 0.66, 6.8 0.78, 8.19 0.62 C9.59 0.45, 10 0.75, 9.85 0.79 M4.32 -0.04 C5.76 -0.74, 9.75 -0.33, 11.54 0.31 C13.34 0.95, 14.82 2.13, 15.1 3.81 C15.38 5.48, 13.85 9, 13.22 10.37 C12.59 11.74, 12.46 11.4, 11.33 12.04 C10.2 12.69, 8.19 14.3, 6.42 14.25 C4.65 14.21, 1.78 13.13, 0.7 11.77 C-0.37 10.41, -0.41 7.37, -0.05 6.09 C0.32 4.81, 1.86 4.91, 2.88 4.08 C3.91 3.26, 5.74 1.86, 6.1 1.15 C6.46 0.43, 4.85 -0.26, 5.02 -0.21" stroke="#000000" stroke-width="1" fill="none"></path></g><g stroke-linecap="round"><g transform="translate(1111.9370559923125 325.16724669365885) rotate(0 21.891198601770213 -0.9839510204549953)"><path d="M0.72 -0.47 C8.28 -0.83, 36.79 -1.28, 44.15 -1.15 M-0.36 -1.76 C7.13 -1.5, 35.67 -0.2, 43.14 -0.21" stroke="#000000" stroke-width="1" fill="none"></path></g></g><g stroke-linecap="round"><g transform="translate(1112.7076631586383 337.89376134006716) rotate(0 22.379278360522363 -0.40090851055617804)"><path d="M-0.47 -0.12 C6.54 -0.13, 35.6 0.45, 43.12 0.61 M1.49 -1.22 C8.76 -1.65, 38.14 -1.22, 45.23 -1.19" stroke="#000000" stroke-width="1" fill="none"></path></g></g><g stroke-linecap="round"><g transform="translate(1110.8969229885056 349.0091861934733) rotate(0 21.618023770201006 -0.3648876722809007)"><path d="M-0.12 -1.15 C7.24 -1.01, 37.33 0.3, 44.87 0.34 M-1.64 0.87 C5.56 0.67, 36.51 -1.45, 44.24 -1.6" stroke="#000000" stroke-width="1" fill="none"></path></g></g><g stroke-linecap="round" transform="translate(1096.177289284377 655.0905163701785) rotate(0 38.333333333333286 78.24742268041246)"><path d="M1.27 -0.79 C21.01 -0.46, 45.89 -0.76, 76.34 1.42 M-0.49 -0.01 C24.18 -0.3, 47.82 -0.64, 75.92 0.51 M75.41 -0.79 C75.09 51.89, 75.98 106.22, 77.82 158.11 M76.1 0.34 C75.4 52.44, 75.39 104.31, 77.36 157.06 M75.95 154.94 C62.65 156.02, 46.91 154.95, 0.09 158.28 M76.93 157.26 C54.44 156.87, 30.12 155.36, 0.66 156.98 M1.68 154.87 C0.27 104.15, -0.38 52.1, 1.15 0.07 M0.39 156.84 C-0.33 114.52, -1.07 71.32, -0.8 -0.08" stroke="#000000" stroke-width="1" fill="none"></path></g><g stroke-linecap="round" transform="translate(1111.194471414962 667.7365644801441) rotate(0 22.920962199312754 3.9518900343642827)"><path d="M-0.79 -1.32 C10.28 0.95, 21.26 -0.61, 47.26 0.28 M-0.01 0.13 C12.81 -0.06, 25.69 -0.52, 46.35 0.33 M45.53 -0.19 C45.8 1.98, 46.68 4.09, 46.48 8.16 M45.98 0.01 C45.97 1.73, 45.88 3.7, 46.07 7.53 M44.28 9.68 C28.26 9.57, 9.68 7.83, 1.78 7.88 M46.6 8.59 C29.37 7.3, 10.48 8.68, 0.48 8.28 M-0.64 8.25 C0.13 5.32, 0.42 3, 0.03 -0.22 M0.13 8.17 C0.23 5, -0.03 1.82, -0.03 -0.16" stroke="#000000" stroke-width="1" fill="none"></path></g><g stroke-linecap="round" transform="translate(1113.5656054355788 699.3516847550583) rotate(0 7.11340206185568 7.113402061855652)"><path d="M5.21 0.93 C6.51 0.57, 8.97 0.13, 10.35 0.59 C11.72 1.06, 12.86 2.28, 13.46 3.71 C14.06 5.14, 14.41 7.68, 13.95 9.18 C13.49 10.68, 12.09 12, 10.7 12.71 C9.32 13.42, 7.01 13.5, 5.65 13.45 C4.28 13.4, 3.58 13.26, 2.53 12.4 C1.47 11.54, -0.38 9.92, -0.68 8.28 C-0.98 6.63, -0.33 3.93, 0.72 2.56 C1.76 1.18, 4.61 0.24, 5.58 0.01 C6.54 -0.22, 6.33 0.91, 6.48 1.18 M7.43 0.61 C9.09 0.85, 11.42 1.91, 12.56 3.01 C13.7 4.11, 14.09 5.64, 14.27 7.22 C14.45 8.79, 14.86 11.13, 13.65 12.48 C12.44 13.83, 8.81 15.28, 7.01 15.33 C5.21 15.38, 4.14 13.51, 2.85 12.77 C1.56 12.04, -0.3 12.05, -0.72 10.94 C-1.13 9.83, -0.21 7.77, 0.35 6.12 C0.9 4.47, 1.08 2.06, 2.63 1.05 C4.17 0.05, 8.48 0.39, 9.61 0.08 C10.75 -0.23, 9.62 -1.14, 9.44 -0.83" stroke="#000000" stroke-width="1" fill="none"></path></g><g stroke-linecap="round"><g transform="translate(1111.9370559923125 755.1672466936589) rotate(0 22.107997473493214 0.4310957543572158)"><path d="M-0.79 -0.59 C6.58 -0.64, 37.53 -1.01, 45.01 -0.77 M1 1.71 C8.21 1.84, 37.41 0.82, 44.45 0.36" stroke="#000000" stroke-width="1" fill="none"></path></g></g><g stroke-linecap="round"><g transform="translate(1112.7076631586383 767.8937613400672) rotate(0 22.60020660541113 0.5249338950449101)"><path d="M-0.59 0.74 C6.73 0.84, 35.87 -0.1, 43.49 -0.19 M1.29 0.09 C9.05 0.44, 38.54 1, 45.79 1.24" stroke="#000000" stroke-width="1" fill="none"></path></g></g><g stroke-linecap="round"><g transform="translate(1110.8969229885056 779.0091861934733) rotate(0 21.871794121312888 0.3070985028986115)"><path d="M0.74 -0.77 C8.22 -0.53, 36.79 0.75, 44.07 0.85 M-0.32 1.44 C7.05 1.4, 35.67 -0.77, 43.02 -0.82" stroke="#000000" stroke-width="1" fill="none"></path></g></g><g stroke-linecap="round" transform="translate(1095.177289284377 440.09051637017853) rotate(0 38.333333333333286 78.24742268041243)"><path d="M-1.04 0.29 C29.09 -2.37, 58.69 -0.47, 78.26 0.6 M-0.28 -0.8 C15.46 1.37, 32.32 1.47, 76.11 -0.81 M77.46 -0.81 C77.35 59.47, 77.38 120.78, 75.42 157.76 M77.12 -0.48 C77.03 47.28, 76.93 95.91, 76.91 156.8 M76.04 154.74 C60.1 155.88, 39.55 154.61, 0.52 158.43 M76.13 157.13 C46.52 156.38, 16.92 156.9, 0.96 156.49 M1.41 156.08 C-0.35 120.65, 2.45 87.72, -0.32 -0.88 M0.35 155.68 C2.23 104.12, 1.3 50.03, 0.07 0.28" stroke="#000000" stroke-width="1" fill="none"></path></g><g stroke-linecap="round" transform="translate(1110.194471414962 452.7365644801441) rotate(0 22.920962199312754 3.9518900343642827)"><path d="M0.29 0 C9.75 0.75, 23.32 1.83, 46.44 -1.77 M-0.8 -0.74 C11.24 0.05, 21.81 -0.43, 45.03 0.81 M45.52 0.44 C45.74 2.6, 46.39 3.82, 46.34 7.96 M45.65 0.15 C45.48 2.47, 45.68 4.81, 45.96 7.65 M44.09 9.34 C33.53 6.64, 19.91 8.28, 1.94 9.72 M46.48 7.73 C31.18 7.87, 17.16 8.61, 0 7.13 M-0.17 7.26 C-0.43 6.64, 0.33 4.34, -0.35 0.32 M-0.32 8.24 C0.38 6.2, 0.07 4.6, 0.11 0.2" stroke="#000000" stroke-width="1" fill="none"></path></g><g stroke-linecap="round" transform="translate(1112.5656054355788 484.3516847550583) rotate(0 7.11340206185568 7.11340206185568)"><path d="M4.62 1.1 C5.68 0.24, 6.54 -0.78, 7.77 -0.55 C8.99 -0.32, 11.03 1.29, 11.98 2.5 C12.92 3.7, 13.23 5.13, 13.42 6.68 C13.61 8.24, 13.88 10.68, 13.13 11.84 C12.38 12.99, 10.69 13.26, 8.92 13.61 C7.14 13.96, 3.96 14.71, 2.48 13.92 C1 13.14, 0.31 10.54, 0.06 8.88 C-0.2 7.23, 0.06 5.42, 0.94 3.99 C1.82 2.55, 4.44 0.8, 5.35 0.3 C6.25 -0.2, 6.55 0.76, 6.39 1 M8.05 -0.72 C9.6 -0.82, 11.37 -0.46, 12.46 0.61 C13.55 1.68, 14.41 3.91, 14.59 5.7 C14.76 7.49, 14.55 10.06, 13.5 11.35 C12.46 12.64, 10.04 13.11, 8.32 13.42 C6.6 13.74, 4.64 13.55, 3.18 13.23 C1.71 12.91, 0.01 12.93, -0.49 11.52 C-0.99 10.11, -0.2 6.39, 0.18 4.79 C0.57 3.18, 0.37 2.46, 1.82 1.89 C3.26 1.32, 7.86 1.66, 8.83 1.37 C9.8 1.08, 8.01 0.11, 7.63 0.16" stroke="#000000" stroke-width="1" fill="none"></path></g><g stroke-linecap="round"><g transform="translate(1110.9370559923125 540.1672466936589) rotate(0 21.553308465248904 0.24231399855082714)"><path d="M0 -1.15 C7.53 -1.18, 37.03 -0.26, 44.57 -0.01 M-1.46 0.86 C5.99 1.01, 36.05 1.96, 43.78 1.52" stroke="#000000" stroke-width="1" fill="none"></path></g></g><g stroke-linecap="round"><g transform="translate(1111.7076631586383 552.8937613400672) rotate(0 21.54913011433183 0.14636058423300824)"><path d="M-1.15 0.31 C6.19 0.47, 36.62 1.18, 44.25 0.95 M0.44 -0.58 C7.62 -0.74, 36.03 -0.71, 43.3 -0.67" stroke="#000000" stroke-width="1" fill="none"></path></g></g><g stroke-linecap="round"><g transform="translate(1109.8969229885056 564.0091861934733) rotate(0 22.11167176670486 -0.6027551245653058)"><path d="M0.31 -0.01 C7.84 0.24, 38.07 0.5, 45.22 0.36 M-0.99 -1.06 C6.47 -1.08, 37.01 -1.75, 44.77 -1.58" stroke="#000000" stroke-width="1" fill="none"></path></g></g><g stroke-linecap="round" transform="translate(1095.177289284377 870.0905163701785) rotate(0 38.333333333333286 78.24742268041246)"><path d="M-0.32 1.42 C19.48 0.26, 38.12 -0.48, 76.64 0.26 M-0.74 0.51 C20.21 -0.13, 40.4 -0.06, 76.27 -0.24 M77.82 1.61 C77.65 43.52, 76.87 89.23, 77.35 156.56 M77.36 0.57 C75.77 53.21, 76.2 104.43, 75.89 157.38 M76.75 158.28 C53.94 157.64, 29.84 156.57, 1.53 157.86 M77.32 156.98 C47.01 156.43, 17.11 156.89, -0.81 156.93 M1.15 156.57 C-0.74 107.41, 0.02 56.52, 0.68 1.37 M-0.8 156.41 C-0.33 100.08, 0.03 44.27, 0.4 0.45" stroke="#000000" stroke-width="1" fill="none"></path></g><g stroke-linecap="round" transform="translate(1110.194471414962 882.7365644801441) rotate(0 22.920962199312754 3.9518900343642827)"><path d="M1.42 0.28 C16.36 -0.21, 32.22 0.05, 46.1 -0.81 M0.51 0.33 C11.73 0.98, 24.25 -0.06, 45.6 -0.11 M46.48 0.26 C45.26 2.49, 45.47 5.34, 45.87 8.18 M46.07 -0.37 C46.17 2.19, 45.71 4.48, 46.19 7.89 M47.62 7.88 C29.49 6.51, 10.48 9.45, 1.36 9.74 M46.33 8.28 C35.79 8.7, 25.79 7.39, 0.44 8.12 M0.03 7.68 C0.47 5.52, 0.26 3.25, 0.54 0.47 M-0.03 7.74 C-0.07 5.55, 0.09 3.4, 0.18 -0.05" stroke="#000000" stroke-width="1" fill="none"></path></g><g stroke-linecap="round" transform="translate(1112.5656054355788 914.3516847550583) rotate(0 7.11340206185568 7.113402061855652)"><path d="M6.69 0.14 C8.08 0, 9.85 0.36, 10.95 1.12 C12.05 1.88, 12.78 3.14, 13.29 4.73 C13.79 6.31, 14.66 9.04, 13.98 10.63 C13.31 12.23, 10.82 13.8, 9.23 14.29 C7.64 14.77, 5.83 14.1, 4.45 13.53 C3.06 12.97, 1.63 11.95, 0.93 10.91 C0.24 9.87, -0.06 8.64, 0.25 7.28 C0.57 5.92, 1.44 4.09, 2.81 2.75 C4.17 1.41, 7.33 -0.3, 8.42 -0.76 C9.51 -1.23, 9.36 -0.3, 9.34 -0.04 M9.38 0.96 C10.58 1.29, 10.47 2.83, 11.15 3.77 C11.83 4.7, 13.41 5.03, 13.46 6.57 C13.5 8.11, 12.26 11.53, 11.4 13.01 C10.54 14.5, 9.75 15.43, 8.3 15.49 C6.85 15.54, 3.78 14.33, 2.69 13.34 C1.61 12.35, 1.95 11.15, 1.77 9.53 C1.59 7.91, 1.25 4.86, 1.62 3.62 C1.98 2.38, 2.65 2.46, 3.94 2.1 C5.23 1.74, 8.82 1.94, 9.37 1.48 C9.92 1.03, 7.26 -0.64, 7.24 -0.64" stroke="#000000" stroke-width="1" fill="none"></path></g><g stroke-linecap="round"><g transform="translate(1110.9370559923125 970.1672466936589) rotate(0 21.44227481667977 -0.3065307631250107)"><path d="M0.17 -0.14 C7.55 -0.38, 36.74 -0.63, 44.09 -0.58 M-1.21 -1.26 C6.02 -1.42, 35.61 0.18, 43.05 0.65" stroke="#000000" stroke-width="1" fill="none"></path></g></g><g stroke-linecap="round"><g transform="translate(1111.7076631586383 982.8937613400672) rotate(0 22.204550679890417 0.10631572430020242)"><path d="M-0.14 -0.17 C7 -0.2, 36.25 0.04, 43.68 -0.01 M-1.67 -1.3 C5.79 -1.14, 38.51 1.2, 46.08 1.52" stroke="#000000" stroke-width="1" fill="none"></path></g></g><g stroke-linecap="round"><g transform="translate(1109.8969229885056 994.0091861934733) rotate(0 21.265021215426742 0.6639522781642313)"><path d="M-0.17 -0.58 C7.18 -0.53, 36.92 0.12, 44.25 0.16 M-1.72 1.72 C5.46 2, 35.88 1.93, 43.29 1.77" stroke="#000000" stroke-width="1" fill="none"></path></g></g><g stroke-linecap="round" transform="translate(70.20286161461149 381.3177059645325) rotate(0 51.60691414706926 53.36624076571934)"><path d="M58.11 0.07 C66.31 -0.06, 76.93 5.23, 83.59 10.12 C90.24 15.01, 95.07 21.31, 98.06 29.4 C101.04 37.49, 102.41 49.75, 101.47 58.66 C100.54 67.56, 97.45 75.92, 92.45 82.83 C87.45 89.75, 79.03 96.1, 71.45 100.14 C63.87 104.18, 55.39 107.31, 46.98 107.07 C38.57 106.83, 27.84 103.85, 20.99 98.72 C14.14 93.6, 9.11 84.51, 5.86 76.31 C2.61 68.12, 0.97 58.57, 1.47 49.57 C1.97 40.57, 4.3 29.63, 8.85 22.32 C13.4 15, 15.9 7.38, 28.78 5.68 C41.65 3.99, 74.05 6.37, 86.11 12.16 C98.17 17.95, 101.74 39.66, 101.14 40.43 M17.28 12.17 C23.59 6.92, 33.58 5.27, 42.54 3.57 C51.5 1.86, 62.71 -0.43, 71.04 1.94 C79.37 4.32, 87.09 11.43, 92.5 17.83 C97.91 24.24, 101.96 31.22, 103.49 40.38 C105.03 49.53, 104.71 63.44, 101.73 72.75 C98.75 82.07, 92.77 90.62, 85.6 96.25 C78.43 101.89, 67.4 105.65, 58.73 106.58 C50.06 107.5, 41.64 104.97, 33.6 101.8 C25.57 98.63, 16.4 93.99, 10.53 87.56 C4.67 81.14, 0.2 71.64, -1.58 63.24 C-3.36 54.84, -2.89 45.84, -0.13 37.16 C2.64 28.48, 12.15 15.03, 15.01 11.15 C17.88 7.26, 16.02 12.91, 17.04 13.85" stroke="#000" stroke-width="2" fill="none"></path></g><g stroke-linecap="round"><g transform="translate(92.91133455614397 440.1477753572354) rotate(0 -31.758550603375454 -0.9905324534398119)"><path d="M-18.83 -10.06 C-17.9 -11.96, -14.81 -18.85, -16.87 -20.7 C-18.94 -22.54, -27.25 -23.76, -31.23 -21.15 C-35.21 -18.54, -38.96 -9.85, -40.74 -5.04 C-42.51 -0.23, -43.42 3.75, -41.88 7.71 C-40.34 11.67, -34.93 17.09, -31.49 18.73 C-28.04 20.37, -22.76 22.81, -21.19 17.54 C-19.63 12.27, -22.38 -8.37, -22.09 -12.88 M-21.64 -12.38 C-20.6 -15.18, -15.91 -23.78, -17.62 -24.75 C-19.33 -25.72, -26.97 -21.92, -31.92 -18.18 C-36.87 -14.44, -46.45 -6.54, -47.32 -2.31 C-48.19 1.91, -40.13 4.08, -37.13 7.19 C-34.12 10.3, -32.05 13.91, -29.29 16.35 C-26.52 18.78, -22.58 25.59, -20.53 21.8 C-18.48 18, -16.58 -0.74, -17 -6.43" stroke="#000" stroke-width="2" fill="none"></path></g></g><g stroke-linecap="round"><g transform="translate(177.64810517631497 437.82640249461593) rotate(0 10.131381496153125 -0.1824567256922478)"><path d="M-0.05 -7.59 C0 -9.46, -1.02 -18.63, 1.05 -20.39 C3.13 -22.15, 8.78 -20.56, 12.4 -18.17 C16.03 -15.77, 21.94 -10.43, 22.81 -6.02 C23.68 -1.61, 19.93 4.45, 17.63 8.29 C15.32 12.13, 12.4 15.45, 8.97 17.02 C5.55 18.58, -0.96 22.15, -2.93 17.68 C-4.91 13.22, -3.44 -4.98, -2.87 -9.78 M-3.35 -8.57 C-3.6 -11.32, -2.53 -22, -0.23 -24.28 C2.07 -26.55, 6.5 -25.63, 10.45 -22.22 C14.41 -18.81, 21.69 -8.87, 23.51 -3.82 C25.32 1.22, 23.2 3.71, 21.35 8.07 C19.49 12.44, 16.38 20.02, 12.38 22.35 C8.39 24.67, -0.89 27.45, -2.62 22.02 C-4.36 16.58, 2.03 -5.58, 1.97 -10.29" stroke="#000" stroke-width="2" fill="none"></path></g></g><g stroke-linecap="round"><g transform="translate(63.06159259962283 470.083119133752) rotate(0 58.668302985934815 -83.49666409146994)"><path d="M2.74 -50.59 C3.28 -55.89, -0.27 -74.44, 4.41 -83.89 C9.1 -93.33, 21.96 -101.84, 30.87 -107.26 C39.79 -112.68, 48.33 -116.39, 57.88 -116.4 C67.44 -116.42, 80.08 -111.33, 88.22 -107.34 C96.36 -103.36, 102.68 -97.92, 106.72 -92.5 C110.76 -87.08, 110.74 -81.14, 112.47 -74.83 C114.19 -68.53, 116.52 -58.34, 117.06 -54.65 M0.79 -52.1 C1.04 -56.97, -1.66 -71.74, 3.3 -80.4 C8.26 -89.05, 21.42 -98.22, 30.55 -104.03 C39.67 -109.84, 47.77 -114.86, 58.05 -115.25 C68.33 -115.63, 83.72 -110.97, 92.25 -106.35 C100.77 -101.73, 105.76 -93.46, 109.2 -87.52 C112.63 -81.59, 111.9 -76.17, 112.85 -70.75 C113.81 -65.33, 113.76 -57.72, 114.94 -55.01" stroke="#000" stroke-width="2" fill="none"></path></g></g><g stroke-linecap="round"><g transform="translate(61.97831718199882 457.2949098678573) rotate(0 21.597418701628328 12.345158585549456)"><path d="M1.76 2.07 C2.59 4.09, 2.71 11.75, 5.24 14.89 C7.76 18.03, 13.16 20.28, 16.93 20.91 C20.69 21.53, 23.33 19.96, 27.82 18.63 C32.32 17.29, 41.63 13.93, 43.92 12.89 M-0.73 0.72 C-0.32 3.23, 0.2 7.54, 2.86 11.36 C5.52 15.17, 11.22 22.15, 15.24 23.6 C19.25 25.06, 22.74 21.87, 26.96 20.09 C31.17 18.32, 37.73 13.4, 40.52 12.96" stroke="#000" stroke-width="2" fill="none"></path></g></g><g stroke-linecap="round" transform="translate(103.63006736896193 465.7653836597364) rotate(0 9.383075299467123 4.4960569143280225)"><path d="M15.23 0.47 C16.4 1.1, 18.96 2.86, 18.81 3.82 C18.67 4.78, 16.1 5.3, 14.34 6.23 C12.58 7.15, 9.9 9.15, 8.26 9.38 C6.62 9.6, 5.49 7.98, 4.49 7.56 C3.49 7.14, 2.69 7.48, 2.25 6.85 C1.8 6.21, 1.04 4.97, 1.82 3.76 C2.6 2.56, 5.24 0.46, 6.93 -0.39 C8.61 -1.24, 9.82 -2.27, 11.94 -1.33 C14.07 -0.39, 19.03 3.78, 19.68 5.25 C20.32 6.73, 16.21 7.57, 15.8 7.53 M5.02 -0.26 C7.07 0.19, 10.46 0.59, 13.08 1.6 C15.7 2.61, 20.07 4.73, 20.77 5.82 C21.47 6.91, 18.47 7.51, 17.28 8.15 C16.09 8.79, 15.68 9.34, 13.65 9.67 C11.62 10.01, 6.63 10.57, 5.09 10.18 C3.54 9.79, 4.75 8.78, 4.36 7.34 C3.97 5.9, 2.96 2.73, 2.75 1.53 C2.54 0.34, 2.61 0.81, 3.11 0.18 C3.61 -0.44, 5.1 -1.77, 5.73 -2.2 C6.36 -2.63, 6.59 -2.39, 6.88 -2.42" stroke="#000" stroke-width="2" fill="none"></path></g><g stroke-linecap="round"><g transform="translate(65.22940334360896 533.3316721765691) rotate(0 60.57483865760403 -31.803687965199202)"><path d="M-0.26 -17.58 C3.81 -21.27, 20.36 -36.67, 26.15 -40.42 C31.94 -44.17, 29.25 -40.7, 34.47 -40.08 C39.69 -39.46, 50.86 -37.04, 57.47 -36.71 C64.08 -36.38, 68.08 -36.95, 74.13 -38.09 C80.18 -39.23, 85.61 -45.94, 93.76 -43.55 C101.91 -41.16, 125.01 -27.46, 123.03 -23.73 C121.04 -20, 88.96 -21.59, 81.85 -21.17 M-3.84 -18.56 C-0.29 -22.04, 16.75 -33.95, 24.03 -37.2 C31.31 -40.46, 34.17 -38.48, 39.86 -38.11 C45.54 -37.73, 51.75 -34.93, 58.13 -34.96 C64.5 -34.99, 71.82 -36.51, 78.09 -38.3 C84.35 -40.09, 87.9 -48.97, 95.71 -45.7 C103.53 -42.44, 127.46 -22.83, 124.99 -18.71 C122.53 -14.6, 88.9 -20.22, 80.91 -21.03" stroke="#000" stroke-width="2" fill="none"></path></g></g><g stroke-linecap="round" transform="translate(43.09953658228267 517.455910452122) rotate(0 79.07232548707006 47.48950160447936)"><path d="M0.31 -1.09 C55.31 -6.07, 118.44 -5.33, 154.97 -2.98 M-0.58 1.96 C34.32 -0.04, 67.38 0.46, 157.36 0.01 M156.3 0.76 C157.74 22.29, 158.34 39.86, 154.21 91.25 M159.84 1.89 C156.88 28.87, 157.23 55.81, 156.41 95.82 M154.24 96.13 C97.17 95.09, 36.89 96.58, -3.42 94.29 M156.76 94.16 C125.72 92.37, 93.22 90.82, 1.02 96.28 M-0.44 98.36 C-0.37 58.42, 4.39 22.58, -2.12 0.19 M-0.11 96.01 C0.1 73.25, 3.32 52.13, -0.06 -1.61" stroke="#000" stroke-width="2" fill="none"></path></g><g stroke-linecap="round" transform="translate(115.01122822582067 555.360152407256) rotate(0 7.838073080350966 7.838073080350966)"><path d="M0.32 1.71 C1.16 0.04, 2.49 -1.5, 4.37 -1.56 C6.25 -1.62, 9.92 0, 11.59 1.34 C13.26 2.69, 13.54 4.95, 14.38 6.53 C15.22 8.1, 16.79 9.28, 16.64 10.8 C16.5 12.33, 15.24 14.87, 13.52 15.68 C11.8 16.49, 8.45 15.89, 6.32 15.65 C4.19 15.41, 1.7 15.61, 0.76 14.26 C-0.18 12.91, 0.1 9.84, 0.67 7.55 C1.24 5.25, 3.07 1.76, 4.18 0.49 C5.28 -0.79, 7.54 0, 7.3 -0.11 M2.52 5.72 C3.91 4.41, 7.02 0.2, 8.84 -0.68 C10.66 -1.55, 12.18 0, 13.42 0.46 C14.66 0.93, 15.76 0.15, 16.29 2.12 C16.83 4.09, 17.31 9.78, 16.61 12.28 C15.92 14.78, 14.24 16.42, 12.14 17.13 C10.04 17.83, 5.92 17.49, 4.02 16.49 C2.12 15.49, 1.8 12.67, 0.75 11.14 C-0.29 9.61, -1.95 8.75, -2.25 7.34 C-2.54 5.93, -1.2 3.17, -1.03 2.66 C-0.85 2.14, -1.31 4.42, -1.21 4.23" stroke="#000" stroke-width="2" fill="none"></path></g><g stroke-linecap="round"><g transform="translate(90.8987570727869 419.0898769454211) rotate(0 12.300075457889761 7.6349448971885465)"><path d="M-0.76 -2.67 C2.13 -0.33, 16.53 11.81, 20.1 14.24 M4.02 2.05 C7.55 4.86, 23.04 15.99, 25.36 17.94" stroke="#000" stroke-width="2" fill="none"></path></g></g><g stroke-linecap="round"><g transform="translate(130.7050644069085 431.49570029391896) rotate(0 11.499740101250751 -7.0325752497356575)"><path d="M-2.67 -2.1 C1.57 -4.8, 21.34 -14.43, 25.67 -17 M1.08 2.94 C4.94 0.64, 18.86 -11.15, 23.5 -14.23" stroke="#000" stroke-width="2" fill="none"></path></g></g><g stroke-linecap="round"><g transform="translate(131.98763043069232 430.7636303546386) rotate(0 13.616557339080657 -3.735244108283183)"><path d="M-2.1 0.13 C2 -0.69, 19.55 -6.26, 23.78 -7.6 M1.96 -2.26 C7.05 -2.56, 24.83 -4.53, 29.33 -5.18" stroke="#000" stroke-width="2" fill="none"></path></g></g><g stroke-linecap="round"><g transform="translate(112.0682719913176 431.90703082405577) rotate(0 -13.53283545872182 0.6120090749179781)"><path d="M0.13 -1.58 C-3.95 -1.64, -22.59 -2.76, -27.2 -2.47 M-3.24 3.74 C-6.22 4.16, -18.87 0.06, -22.01 0.03" stroke="#000" stroke-width="2" fill="none"></path></g></g><g stroke-linecap="round"><g transform="translate(132.0066319594033 430.4477343016891) rotate(0 9.258068050062349 1.43857022769933)"><path d="M-1.58 -2.23 C1.24 -1.78, 11.65 1.43, 14.82 2.84 M2.76 2.74 C6.65 3.43, 17.89 5.35, 20.09 5.08" stroke="#000" stroke-width="2" fill="none"></path></g></g><g stroke-linecap="round"><g transform="translate(129.47176552087137 419.724893930045) rotate(0 6.08160445671723 -7.708008979180391)"><path d="M-2.23 -2.08 C-0.69 -4.1, 6.87 -11.5, 9.37 -13.66 M1.76 2.96 C4.13 0.18, 12.79 -15.82, 14.39 -18.37" stroke="#000" stroke-width="2" fill="none"></path></g></g><g stroke-linecap="round"><g transform="translate(93.0181865165672 400.4146896662768) rotate(0 9.993024677459971 7.978379954398235)"><path d="M-2.08 -2.54 C1.86 0.91, 18.27 14.67, 22.07 18.5 M1.98 2.25 C5.74 5.02, 17.39 11.58, 20.13 13.94" stroke="#000" stroke-width="2" fill="none"></path></g></g><g stroke-linecap="round"><g transform="translate(111.27465408983846 432.5994706830765) rotate(0 -9.067323725010397 4.218264623679772)"><path d="M-2.54 0.55 C-5.11 2.05, -15.42 5.39, -17.62 6.87 M1.27 -1.61 C-1.39 0.47, -16.52 8.97, -19.41 10.05" stroke="#000" stroke-width="2" fill="none"></path></g></g><g stroke-linecap="round"><g transform="translate(336.1033414777235 680.5737850501814) rotate(0 -212.76745634030615 -320.6777637086313)"><path d="M-139.54 -200.83 C-136.66 -204.2, -128.29 -216.28, -124.92 -224.42 C-121.55 -232.56, -118.67 -241.78, -119.33 -249.69 C-119.99 -257.6, -125.64 -265.71, -128.87 -271.89 C-132.1 -278.07, -136.19 -281.11, -138.7 -286.77 C-141.21 -292.43, -143.61 -298.1, -143.92 -305.85 C-144.23 -313.59, -143.31 -324.51, -140.57 -333.23 C-137.82 -341.95, -126.32 -356.16, -127.45 -358.16 C-128.59 -360.15, -141.21 -348.85, -147.4 -345.2 C-153.59 -341.55, -163.29 -335.51, -164.58 -336.25 C-165.88 -336.98, -157.34 -343.81, -155.15 -349.61 C-152.97 -355.41, -151.82 -363.86, -151.45 -371.05 C-151.08 -378.24, -151.8 -387.37, -152.93 -392.75 C-154.06 -398.13, -156.05 -404.95, -158.22 -403.3 C-160.38 -401.66, -162.51 -389.97, -165.93 -382.88 C-169.35 -375.79, -176.11 -366.03, -178.74 -360.76 C-181.36 -355.48, -181.19 -349.59, -181.68 -351.23 C-182.18 -352.88, -179.82 -364.8, -181.7 -370.63 C-183.58 -376.46, -189.41 -380.85, -192.97 -386.23 C-196.53 -391.62, -200.79 -395.85, -203.08 -402.95 C-205.37 -410.05, -206.82 -422.52, -206.7 -428.82 C-206.59 -435.13, -200.46 -442.15, -202.39 -440.78 C-204.32 -439.41, -213.71 -427.62, -218.29 -420.62 C-222.87 -413.62, -227.82 -406.56, -229.87 -398.79 C-231.92 -391.01, -231.05 -381.33, -230.61 -373.97 C-230.16 -366.6, -227.12 -360.85, -227.17 -354.61 C-227.22 -348.36, -230.12 -336.79, -230.91 -336.52 C-231.7 -336.25, -229.72 -347.54, -231.92 -352.99 C-234.12 -358.45, -238.15 -364.04, -244.11 -369.25 C-250.06 -374.45, -261.58 -380.99, -267.66 -384.25 C-273.74 -387.5, -280.6 -391.3, -280.58 -388.78 C-280.57 -386.26, -269.95 -375.92, -267.56 -369.12 C-265.17 -362.32, -265.01 -355.17, -266.26 -347.98 C-267.51 -340.78, -272.93 -333.28, -275.05 -325.94 C-277.17 -318.6, -277.51 -306.23, -279 -303.95 C-280.49 -301.67, -283.05 -308.59, -283.97 -312.27 C-284.88 -315.94, -284.11 -320.44, -284.48 -325.98 C-284.85 -331.52, -284.99 -344.7, -286.18 -345.52 C-287.37 -346.34, -289.29 -337.73, -291.62 -330.9 C-293.94 -324.06, -297.71 -312.2, -300.14 -304.52 C-302.56 -296.84, -306.22 -293.08, -306.16 -284.81 C-306.1 -276.53, -300.46 -263.3, -299.78 -254.86 C-299.1 -246.43, -301.96 -240.58, -302.07 -234.19 C-302.17 -227.8, -302.49 -222.16, -300.42 -216.53 C-298.36 -210.9, -291.73 -202.83, -289.67 -200.41 M-142.68 -202.85 C-140.06 -206.7, -131.35 -219.33, -127.6 -227.94 C-123.85 -236.56, -120.23 -246.39, -120.19 -254.54 C-120.15 -262.69, -125.04 -271.65, -127.36 -276.86 C-129.68 -282.08, -131.74 -280.71, -134.13 -285.84 C-136.53 -290.96, -140.99 -300.5, -141.73 -307.61 C-142.47 -314.71, -140.58 -319.83, -138.56 -328.47 C-136.54 -337.11, -127.51 -356.07, -129.59 -359.45 C-131.66 -362.82, -145.28 -353.6, -150.99 -348.72 C-156.71 -343.84, -163.06 -330.38, -163.86 -330.17 C-164.67 -329.96, -158.68 -340.55, -155.82 -347.45 C-152.95 -354.34, -147.47 -363.92, -146.68 -371.55 C-145.9 -379.19, -148.82 -388.07, -151.1 -393.26 C-153.37 -398.46, -157.96 -404.32, -160.33 -402.7 C-162.71 -401.08, -162.46 -389.71, -165.34 -383.56 C-168.22 -377.41, -174.58 -371.49, -177.61 -365.81 C-180.64 -360.13, -182.56 -348.57, -183.52 -349.48 C-184.47 -350.38, -181.29 -365.1, -183.34 -371.25 C-185.39 -377.39, -192.53 -381.6, -195.8 -386.34 C-199.08 -391.07, -200.66 -393.33, -202.99 -399.66 C-205.31 -405.98, -209.93 -418.09, -209.76 -424.28 C-209.59 -430.47, -200.62 -438.28, -201.97 -436.79 C-203.32 -435.3, -213.66 -421.21, -217.84 -415.33 C-222.03 -409.45, -225.57 -408.53, -227.06 -401.51 C-228.56 -394.48, -227.19 -380.77, -226.8 -373.2 C-226.4 -365.62, -223.27 -362.15, -224.7 -356.05 C-226.12 -349.95, -233.44 -337.82, -235.33 -336.57 C-237.22 -335.33, -234.71 -343.72, -236.06 -348.58 C-237.4 -353.44, -237.56 -359.18, -243.4 -365.71 C-249.24 -372.24, -264.7 -383.43, -271.08 -387.76 C-277.45 -392.08, -282.18 -395.38, -281.66 -391.66 C-281.13 -387.93, -271.14 -372.33, -267.94 -365.43 C-264.74 -358.52, -261.73 -357.28, -262.43 -350.22 C-263.13 -343.16, -269.97 -330.64, -272.13 -323.06 C-274.29 -315.49, -273.41 -307.13, -275.37 -304.76 C-277.34 -302.39, -282.02 -304.92, -283.95 -308.84 C-285.88 -312.77, -286.87 -323.18, -286.96 -328.32 C-287.06 -333.46, -283.65 -339.27, -284.51 -339.67 C-285.38 -340.07, -289.03 -336.64, -292.14 -330.7 C-295.26 -324.75, -300.85 -311.65, -303.2 -304 C-305.56 -296.35, -306.03 -292.98, -306.27 -284.8 C-306.52 -276.62, -305.17 -263.46, -304.67 -254.92 C-304.16 -246.39, -304.14 -239.21, -303.25 -233.6 C-302.35 -227.99, -301.19 -226.75, -299.31 -221.26 C-297.43 -215.76, -293.33 -203.79, -291.97 -200.61" stroke="#000" stroke-width="2" fill="none"></path></g></g><g stroke-linecap="round"><g transform="translate(58.941890749944264 617.0888848018278) rotate(0 62.38786036065335 0.3760965642535439)"><path d="M-17.98 -4.59 C-20.77 -4.03, -35.22 -2.31, -38.11 0.13 C-40.99 2.57, -39.83 8.86, -35.28 10.04 C-30.73 11.22, -21.61 7.5, -10.8 7.23 C0.02 6.95, 14.68 7.77, 29.62 8.39 C44.56 9.01, 59.4 10.96, 78.87 10.96 C98.34 10.97, 132.04 10.85, 146.45 8.43 C160.85 6.01, 164.21 -0.45, 165.31 -3.56 C166.41 -6.67, 155.47 -9, 153.05 -10.21 M-20.97 -7.5 C-23.66 -7.8, -36.28 -6.09, -38.86 -3.93 C-41.43 -1.78, -41.36 3.24, -36.41 5.44 C-31.46 7.63, -19.58 8.78, -9.15 9.23 C1.27 9.69, 12.25 8.21, 26.15 8.17 C40.06 8.13, 54.07 9.44, 74.26 9 C94.44 8.56, 132.57 7.71, 147.26 5.54 C161.95 3.37, 160.7 -2.1, 162.4 -4.01 C164.11 -5.92, 159.37 -5.82, 157.48 -5.93" stroke="#000" stroke-width="2" fill="none"></path></g></g><g stroke-linecap="round" transform="translate(460.52698857725466 538.2387238332574) rotate(0 128.6619674737836 45.90755646951891)"><path d="M23.46 -1.77 L234.23 0.32 L243.6 1.74 L251.11 5.58 L258.76 16.21 L259.28 70.15 L254.01 79.1 L255.76 81.27 L248.74 89.13 L235.96 91.38 L22.21 91.59 L14.03 89.98 L5.57 84.61 L0.43 74.21 L2.02 15.64 L4.44 6.41 L11.63 1.59 L24.67 0.29" stroke="none" stroke-width="0" fill="#ced4da"></path><path d="M22.95 0 M22.95 0 C80.1 0.4, 139.06 3.27, 234.37 0 M22.95 0 C78.71 0.27, 135.76 0.61, 234.37 0 M234.37 0 C248.49 0.91, 257.55 6.5, 257.32 22.95 M234.37 0 C251.38 -0.8, 255.79 9.16, 257.32 22.95 M257.32 22.95 C256.34 40.89, 258.75 60.2, 257.32 68.86 M257.32 22.95 C256.32 38.66, 257.88 55.08, 257.32 68.86 M257.32 68.86 C257.92 85.22, 248.41 93.71, 234.37 91.82 M257.32 68.86 C258.23 82.01, 250.83 91.77, 234.37 91.82 M234.37 91.82 C191.13 88.39, 149.43 90.53, 22.95 91.82 M234.37 91.82 C161.74 94.19, 90.57 92.93, 22.95 91.82 M22.95 91.82 C8.36 91.84, -0.16 84.4, 0 68.86 M22.95 91.82 C9.37 90.23, 0.28 84.6, 0 68.86 M0 68.86 C-0.51 52.9, 0.49 35.01, 0 22.95 M0 68.86 C-0.9 51.07, -0.31 32.05, 0 22.95 M0 22.95 C1.32 9.47, 6.35 -0.33, 22.95 0 M0 22.95 C-0.95 6.48, 7.34 -0.19, 22.95 0" stroke="#000000" stroke-width="1" fill="none"></path></g><g stroke-linecap="round" transform="translate(531.804510464133 434.3426749811928) rotate(0 86.98273857382556 83.96250459556774)"><path d="M109.68 3.6 C120.72 5.22, 131.75 12.58, 140.96 19.51 C150.18 26.43, 159.42 35.17, 164.95 45.14 C170.49 55.1, 173.64 67.83, 174.19 79.29 C174.73 90.75, 172.34 103.37, 168.21 113.9 C164.09 124.42, 157.72 134.35, 149.45 142.44 C141.17 150.53, 129.56 158.22, 118.56 162.44 C107.56 166.65, 95.22 168.39, 83.44 167.76 C71.67 167.12, 58.46 163.72, 47.9 158.63 C37.35 153.55, 27.57 145.87, 20.12 137.25 C12.66 128.64, 6.23 117.99, 3.17 106.94 C0.11 95.89, 0.08 82.28, 1.77 70.94 C3.46 59.6, 7.04 48.5, 13.31 38.9 C19.58 29.3, 29.32 19.48, 39.39 13.33 C49.46 7.18, 61.89 3.69, 73.74 1.99 C85.59 0.29, 104.1 2.65, 110.5 3.14 C116.91 3.64, 112.47 3.61, 112.16 4.97 M55.93 5.7 C66.15 0.34, 80.08 -0.37, 91.71 0.38 C103.33 1.12, 115.07 5.29, 125.68 10.17 C136.29 15.04, 148.01 21.32, 155.36 29.64 C162.71 37.95, 166.76 48.77, 169.78 60.05 C172.81 71.33, 175.26 85.78, 173.51 97.33 C171.76 108.88, 165.83 119.85, 159.3 129.34 C152.77 138.84, 144.05 148.18, 134.32 154.29 C124.58 160.4, 112.62 164.05, 100.91 166.02 C89.2 167.98, 75.46 169, 64.03 166.09 C52.61 163.18, 41.3 155.71, 32.37 148.57 C23.43 141.43, 15.86 132.91, 10.41 123.25 C4.96 113.58, 0.39 101.92, -0.33 90.58 C-1.04 79.24, 2.06 66.26, 6.13 55.21 C10.2 44.16, 16.19 32.52, 24.09 24.28 C31.99 16.04, 48.25 8.44, 53.53 5.78 C58.81 3.13, 54.99 6.97, 55.76 8.37" stroke="none" stroke-width="0" fill="#ced4da"></path><path d="M94.42 -0.45 C105.9 -0.79, 119.14 5.16, 129.22 10.69 C139.29 16.22, 147.69 23.96, 154.88 32.73 C162.06 41.5, 169.35 52.22, 172.33 63.31 C175.31 74.4, 174.87 87.97, 172.75 99.27 C170.63 110.56, 166.37 121.74, 159.62 131.08 C152.88 140.42, 142.37 149.31, 132.3 155.29 C122.22 161.28, 110.82 165.55, 99.18 166.97 C87.54 168.39, 73.87 166.98, 62.47 163.81 C51.06 160.65, 39.58 155.37, 30.74 147.97 C21.9 140.56, 14.65 129.59, 9.43 119.39 C4.2 109.19, -0.02 97.97, -0.61 86.77 C-1.2 75.57, 1.14 62.72, 5.87 52.16 C10.6 41.6, 19.18 31.34, 27.76 23.39 C36.35 15.44, 45.69 8.25, 57.39 4.48 C69.08 0.71, 90.35 0.79, 97.96 0.75 C105.57 0.72, 102.95 2.93, 103.05 4.26 M120.91 6.48 C131.94 9.48, 143.14 17.07, 151.27 25.35 C159.4 33.64, 166.11 45.14, 169.7 56.21 C173.29 67.28, 173.97 80.62, 172.83 91.77 C171.69 102.92, 168.18 113.07, 162.85 123.12 C157.52 133.17, 149.88 145.17, 140.83 152.06 C131.78 158.95, 120.36 162.07, 108.55 164.45 C96.74 166.84, 81.66 168.13, 69.97 166.36 C58.27 164.59, 47.79 160.35, 38.37 153.84 C28.96 147.33, 19.79 137.37, 13.5 127.31 C7.21 117.26, 2.38 104.56, 0.65 93.51 C-1.09 82.47, -0.28 71.67, 3.12 61.05 C6.51 50.43, 13.12 38.78, 21 29.8 C28.89 20.82, 39.56 12.05, 50.43 7.19 C61.3 2.32, 74.81 0.62, 86.24 0.62 C97.66 0.62, 113.4 6.2, 118.97 7.19 C124.54 8.17, 120.11 5.6, 119.67 6.53" stroke="#000000" stroke-width="1" fill="none"></path></g><g stroke-linecap="round" transform="translate(418.24371288163843 510.4525712332911) rotate(0 60.40467956515667 58.592539178201946)"><path d="M75.01 0.92 C83.81 2.23, 93.64 7.89, 100.74 14.18 C107.85 20.46, 114.29 29.87, 117.62 38.63 C120.94 47.39, 121.88 57.86, 120.7 66.73 C119.53 75.59, 115.88 84.41, 110.58 91.84 C105.28 99.28, 97.44 107.07, 88.9 111.35 C80.36 115.64, 68.85 117.74, 59.34 117.54 C49.82 117.33, 39.95 114.34, 31.8 110.11 C23.65 105.87, 15.81 99.62, 10.46 92.13 C5.11 84.64, 0.7 74.21, -0.32 65.18 C-1.34 56.15, 0.83 46.42, 4.34 37.97 C7.85 29.52, 13.76 20.46, 20.75 14.48 C27.74 8.51, 36.83 4.11, 46.28 2.11 C55.73 0.1, 71.89 2.01, 77.43 2.44 C82.97 2.87, 79.87 3.86, 79.52 4.68 M74.23 2.7 C82.94 3.74, 91.32 7.96, 98.23 13.44 C105.13 18.91, 111.97 27.14, 115.66 35.56 C119.34 43.97, 121.3 54.88, 120.34 63.93 C119.38 72.98, 114.74 82.06, 109.91 89.85 C105.08 97.64, 99.36 105.92, 91.36 110.64 C83.35 115.37, 71.42 118.12, 61.88 118.21 C52.34 118.3, 42.26 115.14, 34.12 111.19 C25.98 107.25, 18.76 102.01, 13.05 94.53 C7.33 87.04, 1.67 75.38, -0.17 66.26 C-2.01 57.15, -1.4 48.41, 1.99 39.81 C5.38 31.22, 13.07 21.13, 20.18 14.72 C27.3 8.3, 35.8 3.66, 44.7 1.34 C53.61 -0.98, 69.03 0.82, 73.62 0.8 C78.21 0.77, 72.39 0.25, 72.25 1.2" stroke="none" stroke-width="0" fill="#ced4da"></path><path d="M52.61 1.39 C61.46 -0.79, 73.76 -0.29, 82.63 2.93 C91.5 6.15, 99.89 13.7, 105.84 20.7 C111.78 27.7, 116.07 36.12, 118.31 44.93 C120.55 53.74, 121.46 64.86, 119.29 73.58 C117.11 82.29, 111.58 90.46, 105.29 97.2 C99 103.94, 90.3 110.75, 81.55 114 C72.79 117.24, 62.14 117.86, 52.75 116.65 C43.36 115.45, 32.87 111.78, 25.21 106.75 C17.56 101.73, 11.18 94.66, 6.82 86.5 C2.46 78.34, -1.05 67.1, -0.97 57.77 C-0.88 48.45, 2.79 38.34, 7.34 30.57 C11.88 22.8, 17.72 16.28, 26.31 11.14 C34.91 6, 52.67 1.51, 58.91 -0.27 C65.14 -2.06, 63.74 -0.5, 63.73 0.41 M89.89 6.87 C97.74 10.32, 104.09 18.38, 109.19 26.05 C114.28 33.72, 119.33 43.85, 120.45 52.89 C121.57 61.93, 119.24 72.14, 115.9 80.29 C112.57 88.43, 107.13 95.96, 100.44 101.75 C93.74 107.54, 85.01 112.58, 75.72 115.02 C66.43 117.46, 53.73 118.3, 44.7 116.41 C35.68 114.51, 28.59 110.04, 21.58 103.66 C14.57 97.27, 6.2 86.69, 2.66 78.08 C-0.88 69.48, -1.15 60.74, 0.33 52.03 C1.82 43.33, 6.28 33.43, 11.58 25.84 C16.88 18.26, 24.17 10.9, 32.13 6.51 C40.1 2.12, 49.76 -0.57, 59.36 -0.5 C68.96 -0.43, 84.87 5.39, 89.74 6.92 C94.61 8.44, 89.39 7.57, 88.59 8.66" stroke="#000000" stroke-width="1" fill="none"></path></g><g stroke-linecap="round" transform="translate(483.480766811998 463.33692117246835) rotate(0 41.46548926457375 37.274333805514345)"><path d="M42.06 0.96 C49.19 0.38, 58.95 1.96, 65.3 5.59 C71.65 9.23, 77.51 16.51, 80.18 22.78 C82.86 29.05, 82.87 36.62, 81.35 43.21 C79.82 49.81, 76.11 57.22, 71.05 62.33 C66 67.44, 58.03 72.05, 51 73.85 C43.97 75.65, 35.73 75.16, 28.86 73.13 C22 71.09, 14.67 66.76, 9.81 61.65 C4.96 56.54, 0.56 49.34, -0.26 42.46 C-1.08 35.57, 1.43 26.53, 4.88 20.34 C8.33 14.16, 13.13 8.62, 20.45 5.35 C27.76 2.08, 42.96 1.27, 48.77 0.71 C54.58 0.16, 55.41 1.38, 55.32 2.01 M55.56 3.17 C62.49 4.91, 70.22 9.71, 75.01 15.14 C79.79 20.56, 83.85 29.21, 84.28 35.74 C84.71 42.27, 81.31 48.59, 77.59 54.3 C73.87 60.02, 68.58 66.52, 61.97 70.04 C55.36 73.56, 45.27 76.09, 37.94 75.44 C30.61 74.79, 23.9 70.43, 17.97 66.13 C12.04 61.84, 5.33 55.84, 2.36 49.67 C-0.6 43.51, -1.42 35.79, 0.19 29.14 C1.8 22.49, 6.73 14.26, 12.03 9.78 C17.33 5.3, 24.49 3.54, 31.97 2.27 C39.45 1, 52.78 1.99, 56.9 2.17 C61.03 2.35, 57.12 2.51, 56.72 3.36" stroke="none" stroke-width="0" fill="#ced4da"></path><path d="M40.77 0.67 C47.54 0.03, 55.1 2.07, 61.52 5.23 C67.94 8.39, 75.73 13.63, 79.29 19.65 C82.86 25.67, 83.68 34.58, 82.91 41.36 C82.13 48.14, 79.42 55.13, 74.67 60.31 C69.91 65.5, 61.49 70.32, 54.37 72.47 C47.25 74.63, 39.16 74.97, 31.96 73.23 C24.75 71.5, 16.37 66.93, 11.16 62.07 C5.96 57.2, 1.94 50.69, 0.73 44.04 C-0.48 37.4, 1.2 28.36, 3.91 22.2 C6.63 16.04, 10.46 10.77, 17.01 7.09 C23.57 3.41, 37.97 1.1, 43.25 0.14 C48.54 -0.82, 48.69 0.81, 48.7 1.34 M25.35 4.91 C31.46 2.1, 39.31 1.03, 46.48 1.51 C53.65 1.99, 62.5 3.64, 68.36 7.8 C74.23 11.96, 79.33 20.03, 81.68 26.48 C84.03 32.94, 84.49 40.07, 82.47 46.55 C80.46 53.03, 75.53 60.6, 69.6 65.38 C63.67 70.16, 54.48 74.41, 46.89 75.23 C39.3 76.05, 30.59 73.01, 24.07 70.33 C17.55 67.64, 11.56 64.79, 7.78 59.14 C4 53.5, 1.78 43.43, 1.37 36.45 C0.96 29.47, 1.44 22.64, 5.32 17.28 C9.2 11.91, 21.36 6.51, 24.64 4.26 C27.91 2.01, 24.82 3.54, 24.98 3.76" stroke="#000000" stroke-width="1" fill="none"></path></g><g stroke-linecap="round" transform="translate(647.7814952292399 533.4063494680496) rotate(0 51.34397763038319 48.3237436521253)"><path d="M61.37 -0.04 C69.57 0.54, 78.36 5.76, 84.77 11.08 C91.17 16.4, 96.89 24.03, 99.8 31.86 C102.7 39.69, 103.79 49.9, 102.21 58.04 C100.64 66.17, 95.94 74.76, 90.34 80.68 C84.74 86.61, 76.64 90.96, 68.63 93.57 C60.62 96.17, 50.87 97.75, 42.27 96.32 C33.67 94.89, 23.61 90.42, 17.02 84.99 C10.43 79.56, 5.38 71.31, 2.73 63.75 C0.08 56.18, -0.45 47.48, 1.11 39.61 C2.67 31.75, 6.41 22.62, 12.07 16.56 C17.73 10.5, 25.77 5.58, 35.06 3.27 C44.35 0.96, 61.42 2.19, 67.8 2.72 C74.18 3.24, 73.57 5.64, 73.34 6.4 M74.4 6.2 C81.76 9.09, 89.94 15.04, 94.81 21.97 C99.68 28.9, 103.47 39.68, 103.64 47.78 C103.8 55.88, 100.06 63.8, 95.81 70.57 C91.56 77.35, 85.24 84.11, 78.13 88.43 C71.02 92.75, 61.8 96.16, 53.16 96.49 C44.53 96.81, 33.62 93.98, 26.31 90.4 C19.01 86.83, 13.76 81.58, 9.35 75.05 C4.94 68.53, 0.38 59.48, -0.15 51.28 C-0.67 43.07, 1.96 32.9, 6.21 25.82 C10.45 18.74, 18.29 13.26, 25.33 8.79 C32.38 4.33, 40.4 -0.49, 48.49 -0.95 C56.58 -1.41, 69.32 5, 73.87 6.04 C78.43 7.08, 75.94 4.8, 75.83 5.31" stroke="none" stroke-width="0" fill="#ced4da"></path><path d="M74.31 3.87 C82.09 6.54, 89.32 15.13, 93.9 21.98 C98.47 28.82, 101.1 36.93, 101.76 44.95 C102.42 52.98, 101.48 62.97, 97.85 70.13 C94.23 77.29, 87.15 83.41, 80.01 87.9 C72.87 92.4, 63.55 96.43, 55.01 97.08 C46.48 97.72, 36.63 95.35, 28.82 91.76 C21.01 88.17, 12.94 82.05, 8.16 75.54 C3.38 69.03, 0.79 60.86, 0.12 52.72 C-0.55 44.57, 0.36 34.16, 4.14 26.67 C7.92 19.17, 15.55 12.01, 22.8 7.73 C30.05 3.45, 38.46 1.18, 47.63 0.99 C56.81 0.8, 72.39 5.21, 77.87 6.57 C83.36 7.94, 81.01 8.55, 80.54 9.17 M76.58 5.67 C83.7 8.81, 89.43 16.2, 93.78 23.21 C98.13 30.21, 102.36 39.62, 102.7 47.7 C103.04 55.77, 99.8 64.86, 95.82 71.65 C91.83 78.43, 85.69 84.34, 78.77 88.41 C71.85 92.49, 63.05 95.5, 54.31 96.09 C45.56 96.69, 33.8 95.46, 26.29 92 C18.78 88.54, 13.83 82.52, 9.25 75.35 C4.68 68.18, -0.57 57.16, -1.14 49.01 C-1.71 40.86, 1.51 33.25, 5.84 26.44 C10.17 19.62, 17.63 12.53, 24.83 8.11 C32.03 3.7, 40.86 0.44, 49.07 -0.05 C57.28 -0.55, 69.61 4.03, 74.09 5.13 C78.57 6.24, 76.06 5.65, 75.95 6.57" stroke="#000000" stroke-width="1" fill="none"></path></g><g stroke-linecap="round" transform="translate(433.6051013995899 525.3010950913012) rotate(0 53.20023468061804 51.77522839453002)"><path d="M28.26 5.1 C35.2 0.71, 46.4 -0.74, 55.26 -0.1 C64.11 0.55, 73.77 4.15, 81.39 8.98 C89 13.81, 96.72 21.11, 100.95 28.86 C105.18 36.62, 107.42 46.79, 106.79 55.5 C106.16 64.21, 102.02 74.11, 97.18 81.12 C92.34 88.13, 85.54 93.82, 77.77 97.55 C70 101.27, 59.53 103.87, 50.57 103.48 C41.6 103.09, 31.32 100.05, 23.97 95.2 C16.62 90.36, 10.41 82.1, 6.45 74.41 C2.49 66.72, -0.29 57.57, 0.21 49.06 C0.7 40.54, 3 31.23, 9.41 23.34 C15.82 15.46, 32.06 5.39, 38.64 1.74 C45.23 -1.9, 48.68 0.44, 48.93 1.48 M73.15 3.58 C81.23 6.16, 88.48 13.81, 94.15 20.38 C99.82 26.94, 105.75 34.69, 107.15 42.95 C108.55 51.21, 106.1 61.78, 102.53 69.95 C98.95 78.12, 92.61 86.65, 85.72 91.97 C78.82 97.28, 69.89 100.24, 61.14 101.82 C52.39 103.4, 41.29 104.42, 33.2 101.44 C25.12 98.47, 17.89 90.89, 12.63 83.97 C7.37 77.05, 3.16 68.19, 1.66 59.93 C0.16 51.66, 0.35 42.61, 3.62 34.38 C6.89 26.15, 14.5 16.4, 21.26 10.55 C28.01 4.69, 35.53 0.22, 44.15 -0.77 C52.77 -1.76, 68.52 3.66, 72.99 4.59 C77.47 5.53, 71.55 4.17, 71.02 4.86" stroke="none" stroke-width="0" fill="#ced4da"></path><path d="M34.41 3.1 C42.07 -0.59, 54.73 -1.52, 63.64 0.06 C72.55 1.65, 81.13 6.93, 87.87 12.62 C94.62 18.31, 101.23 26.13, 104.11 34.19 C106.99 42.26, 106.79 52.52, 105.15 61.01 C103.51 69.5, 99.97 78.66, 94.27 85.13 C88.58 91.6, 79.4 96.89, 70.96 99.82 C62.52 102.74, 52.2 104.28, 43.63 102.68 C35.06 101.09, 26.42 95.77, 19.55 90.24 C12.68 84.7, 5.66 77.44, 2.44 69.48 C-0.78 61.52, -1.62 51.03, 0.23 42.51 C2.08 33.99, 6.29 25.39, 13.55 18.36 C20.8 11.34, 37.33 3.23, 43.76 0.34 C50.2 -2.55, 52.06 -0.08, 52.15 1.01 M77.11 4.43 C85.16 7.25, 93.13 16.13, 98.19 23.37 C103.24 30.61, 106.88 39.24, 107.42 47.87 C107.96 56.51, 105.74 67.13, 101.43 75.18 C97.12 83.23, 89.18 91.6, 81.57 96.14 C73.96 100.69, 64.32 101.91, 55.77 102.46 C47.23 103.02, 37.92 103.37, 30.31 99.47 C22.7 95.56, 15.34 86.52, 10.13 79.05 C4.91 71.58, -0.34 62.94, -0.96 54.65 C-1.58 46.35, 2.13 37.04, 6.41 29.28 C10.69 21.52, 17.44 13.18, 24.7 8.09 C31.97 3.01, 41.38 -0.96, 50.02 -1.22 C58.67 -1.47, 72.13 5.19, 76.58 6.54 C81.02 7.89, 76.87 6.44, 76.69 6.88" stroke="#ced4da" stroke-width="1" fill="none"></path></g><g stroke-linecap="round" transform="translate(577.055734199113 485.40091908083787) rotate(0 64.12528287395932 68.87530382758587)"><path d="M73.1 0.03 C82.05 0.23, 92.48 6.16, 100.05 11.73 C107.61 17.31, 113.84 25.09, 118.49 33.49 C123.14 41.89, 126.97 52.15, 127.96 62.13 C128.96 72.11, 127.75 83.98, 124.44 93.37 C121.12 102.75, 114.72 111.51, 108.08 118.44 C101.43 125.37, 93.26 131.79, 84.56 134.94 C75.87 138.09, 65.18 138.63, 55.9 137.33 C46.62 136.04, 36.63 132.6, 28.91 127.17 C21.18 121.74, 14.14 113.23, 9.54 104.75 C4.93 96.26, 2.23 86.31, 1.27 76.28 C0.3 66.25, 0.65 54.04, 3.75 44.57 C6.86 35.1, 13.29 26.19, 19.91 19.46 C26.54 12.73, 33.83 7.3, 43.51 4.18 C53.18 1.07, 71.68 0.87, 77.97 0.77 C84.26 0.66, 81.7 2.36, 81.25 3.57 M62.88 1 C71.8 -0.14, 81.01 2.89, 89.34 6.68 C97.67 10.47, 106.52 16.15, 112.86 23.72 C119.2 31.29, 125.14 42.66, 127.39 52.11 C129.64 61.56, 128.5 70.76, 126.35 80.41 C124.2 90.06, 119.67 102.01, 114.51 110.03 C109.35 118.05, 103.28 124.05, 95.39 128.53 C87.5 133.01, 76.53 136.41, 67.15 136.92 C57.77 137.43, 47.8 135.61, 39.1 131.58 C30.4 127.55, 20.96 120.26, 14.96 112.74 C8.95 105.21, 5.58 95.73, 3.07 86.42 C0.56 77.11, -1.73 66.67, -0.11 56.88 C1.51 47.1, 6.89 35.73, 12.79 27.71 C18.69 19.69, 27.11 13.51, 35.31 8.78 C43.51 4.04, 57.79 0.76, 62.01 -0.71 C66.22 -2.18, 60.67 -1.33, 60.6 -0.03" stroke="none" stroke-width="0" fill="#ced4da"></path><path d="M94.41 8.94 C102.4 12.67, 109.58 20.35, 115.08 28.39 C120.59 36.42, 125.67 47.43, 127.45 57.13 C129.24 66.83, 128.28 77.02, 125.78 86.59 C123.28 96.16, 118.53 106.99, 112.45 114.57 C106.38 122.14, 97.96 128.17, 89.34 132.03 C80.72 135.89, 69.98 137.99, 60.74 137.73 C51.51 137.47, 42.14 135.27, 33.92 130.47 C25.7 125.67, 16.83 117.19, 11.41 108.91 C6 100.63, 2.92 90.31, 1.41 80.77 C-0.11 71.23, -0.08 61.2, 2.33 51.65 C4.73 42.09, 9.84 31.26, 15.83 23.45 C21.82 15.63, 29.8 8.78, 38.28 4.76 C46.77 0.75, 56.75 -1.66, 66.75 -0.64 C76.74 0.37, 92.86 8.44, 98.26 10.85 C103.65 13.26, 99.81 13.12, 99.1 13.83 M74.69 1.79 C83.55 2.14, 94.16 6.64, 101.99 12.3 C109.83 17.95, 117.51 26.64, 121.71 35.72 C125.91 44.8, 126.72 56.51, 127.19 66.78 C127.65 77.04, 128.19 88.51, 124.51 97.32 C120.83 106.14, 112.38 113.24, 105.13 119.69 C97.89 126.14, 89.66 133.07, 81.04 136.02 C72.42 138.97, 62.58 139.3, 53.41 137.38 C44.24 135.46, 33.84 130.57, 26 124.51 C18.16 118.45, 10.5 109.75, 6.35 101.01 C2.2 92.26, 1.22 81.78, 1.1 72.05 C0.98 62.31, 2.3 51.53, 5.61 42.59 C8.93 33.65, 13.99 25.34, 20.99 18.42 C28 11.5, 38.44 3.97, 47.66 1.08 C56.89 -1.81, 71.97 0.96, 76.34 1.08 C80.71 1.19, 74.45 0.69, 73.9 1.78" stroke="#ced4da" stroke-width="1" fill="none"></path></g><g stroke-linecap="round" transform="translate(621.705931163193 533.8511328078241) rotate(0 61.2752703017833 47.02520744090339)"><path d="M59.71 -0.18 C69.41 -0.77, 81.31 2.63, 90.4 6.58 C99.5 10.52, 108.84 16.71, 114.28 23.51 C119.71 30.3, 123.05 39.42, 123.02 47.35 C123 55.29, 119.12 64.48, 114.13 71.09 C109.14 77.71, 101.71 83.23, 93.06 87.06 C84.42 90.88, 72.59 93.89, 62.26 94.06 C51.94 94.24, 39.94 92.07, 31.1 88.11 C22.27 84.14, 14.44 77, 9.27 70.27 C4.11 63.53, 0.24 55.43, 0.13 47.7 C0.01 39.97, 3.59 30.77, 8.61 23.87 C13.63 16.96, 20.56 10.19, 30.24 6.27 C39.91 2.36, 59.78 0.99, 66.64 0.37 C73.51 -0.25, 71.48 1.84, 71.44 2.56 M43.75 2.83 C52.95 -0.06, 67.42 -1.21, 77.39 0.41 C87.35 2.03, 96.54 6.97, 103.54 12.54 C110.54 18.1, 116.55 26.35, 119.39 33.8 C122.24 41.25, 123.07 49.34, 120.62 57.21 C118.18 65.09, 111.63 75.27, 104.72 81.07 C97.81 86.87, 88.7 90.04, 79.18 92.02 C69.65 94.01, 57.65 94.59, 47.58 92.97 C37.51 91.35, 26.07 87.92, 18.76 82.29 C11.45 76.66, 6.72 67.2, 3.73 59.21 C0.74 51.22, -1.5 41.63, 0.81 34.34 C3.13 27.05, 10.56 20.82, 17.63 15.47 C24.69 10.11, 38.83 4.26, 43.21 2.2 C47.58 0.14, 43.5 2.55, 43.88 3.12" stroke="none" stroke-width="0" fill="#ced4da"></path><path d="M81.5 1.63 C91.17 3.37, 100.55 10.15, 107.32 16.11 C114.09 22.07, 120.15 29.78, 122.1 37.39 C124.06 45.01, 122.3 54.35, 119.03 61.79 C115.76 69.23, 110.07 76.92, 102.48 82.02 C94.88 87.11, 83.56 90.77, 73.46 92.37 C63.37 93.97, 51.46 94.14, 41.92 91.62 C32.39 89.1, 23.14 83.06, 16.25 77.25 C9.36 71.44, 2.89 64.28, 0.59 56.78 C-1.7 49.27, -0.98 39.69, 2.51 32.22 C5.99 24.75, 13.79 17.26, 21.49 11.98 C29.19 6.69, 37.78 1.74, 48.71 0.52 C59.64 -0.7, 79.62 3.18, 87.08 4.66 C94.53 6.15, 93.58 8.77, 93.43 9.43 M85.34 3.65 C94.81 5.91, 104.82 11.31, 111.05 17.56 C117.28 23.8, 121.73 33.01, 122.72 41.12 C123.71 49.22, 121.12 59.15, 116.99 66.19 C112.87 73.23, 105.79 78.56, 97.99 83.37 C90.19 88.19, 79.99 94.1, 70.18 95.08 C60.37 96.06, 48.9 92.54, 39.13 89.27 C29.36 86, 17.87 81.37, 11.56 75.46 C5.25 69.56, 2.29 61.67, 1.27 53.85 C0.24 46.03, 1.65 36.13, 5.43 28.55 C9.21 20.97, 16.05 12.9, 23.95 8.38 C31.86 3.86, 42.7 2.15, 52.86 1.43 C63.01 0.71, 79.51 3.7, 84.89 4.05 C90.26 4.4, 85.29 2.78, 85.12 3.52" stroke="#ced4da" stroke-width="1" fill="none"></path></g><g stroke-linecap="round" transform="translate(514.3554576112308 467.35083945705367) rotate(0 51.30022629916738 51.775228394530075)"><path d="M27.21 5.01 C34.21 0.72, 45.16 -0.28, 53.8 0.29 C62.45 0.87, 71.78 3.98, 79.06 8.45 C86.35 12.92, 93.42 19.46, 97.5 27.12 C101.58 34.77, 104.08 45.61, 103.54 54.38 C103 63.15, 98.97 72.55, 94.25 79.73 C89.53 86.92, 82.69 93.41, 75.22 97.5 C67.75 101.59, 58.09 104.56, 49.43 104.26 C40.77 103.96, 30.48 100.31, 23.26 95.7 C16.04 91.09, 9.99 84.25, 6.1 76.62 C2.22 68.99, -0.28 58.57, -0.03 49.91 C0.23 41.26, 2.07 32.45, 7.63 24.72 C13.19 16.98, 27.89 7.07, 33.34 3.49 C38.79 -0.09, 40.09 2.54, 40.32 3.23 M63.19 2.55 C71.11 3.61, 78.77 7.77, 84.83 13.22 C90.89 18.67, 96.81 27.01, 99.55 35.25 C102.28 43.49, 103.13 54.21, 101.22 62.65 C99.32 71.1, 93.61 79.35, 88.13 85.91 C82.65 92.47, 76.33 99.11, 68.34 102.03 C60.36 104.95, 48.75 105.41, 40.21 103.41 C31.67 101.42, 23.16 95.84, 17.1 90.08 C11.03 84.32, 6.62 77.26, 3.83 68.88 C1.04 60.49, -1.02 48.36, 0.34 39.78 C1.69 31.21, 5.9 23.84, 11.97 17.43 C18.04 11.03, 28.31 4.19, 36.74 1.35 C45.17 -1.48, 58.3 0.36, 62.57 0.41 C66.83 0.46, 62.73 0.9, 62.36 1.65" stroke="none" stroke-width="0" fill="#ced4da"></path><path d="M27.29 5.8 C34.22 1.42, 45.7 0.5, 54.33 0.87 C62.97 1.24, 71.99 3.35, 79.09 8.02 C86.19 12.69, 93.05 21.15, 96.93 28.9 C100.8 36.64, 102.89 45.95, 102.33 54.48 C101.76 63, 98.19 72.69, 93.55 80.07 C88.92 87.45, 82.17 94.98, 74.51 98.77 C66.84 102.56, 56.05 103.54, 47.58 102.83 C39.1 102.12, 30.62 98.97, 23.63 94.51 C16.64 90.06, 9.54 83.71, 5.63 76.07 C1.73 68.44, -0.16 57.6, 0.22 48.7 C0.59 39.79, 1.5 30.6, 7.89 22.64 C14.27 14.68, 31.39 4.37, 38.52 0.93 C45.64 -2.51, 50.47 0.91, 50.63 1.99 M52.01 1.12 C60.18 0.5, 69.27 3.88, 76.64 7.96 C84 12.04, 91.71 18.28, 96.23 25.61 C100.74 32.94, 104.01 42.99, 103.71 51.93 C103.4 60.86, 98.71 71.5, 94.39 79.23 C90.07 86.96, 85.28 94.44, 77.79 98.32 C70.3 102.2, 58.27 102.71, 49.46 102.49 C40.65 102.28, 31.96 101.14, 24.94 97.02 C17.91 92.91, 11.51 85.48, 7.29 77.82 C3.06 70.15, -0.19 59.85, -0.42 51.02 C-0.65 42.18, 1.29 32.2, 5.91 24.81 C10.52 17.42, 19.52 10.69, 27.27 6.69 C35.02 2.69, 48.46 1.5, 52.42 0.8 C56.37 0.09, 50.99 1.96, 51.01 2.46" stroke="#ced4da" stroke-width="1" fill="none"></path></g><g stroke-linecap="round" transform="translate(470.65526483789097 493.95095679736244) rotate(0 70.77531220903646 64.60028496932193)"><path d="M99.4 4.83 C108.9 7.29, 117.98 15.12, 124.58 22.27 C131.17 29.42, 136.22 38.83, 138.98 47.73 C141.73 56.63, 142.94 66.45, 141.12 75.65 C139.29 84.85, 134.07 95.28, 128.02 102.93 C121.98 110.57, 113.86 117.19, 104.83 121.52 C95.8 125.84, 84.13 128.43, 73.87 128.87 C63.61 129.31, 52.7 127.64, 43.3 124.15 C33.9 120.66, 24.13 115.04, 17.46 107.92 C10.78 100.79, 6.04 90.52, 3.23 81.41 C0.43 72.31, -1.12 62.51, 0.62 53.29 C2.36 44.07, 7.43 33.55, 13.68 26.09 C19.93 18.63, 29.18 12.89, 38.09 8.53 C47.01 4.16, 55.64 -0.19, 67.17 -0.11 C78.71 -0.03, 99.37 6.35, 107.32 9 C115.27 11.64, 115.55 14.83, 114.87 15.76 M104.12 7.42 C113.1 10.87, 120.96 19.73, 127.19 26.99 C133.42 34.25, 139.62 42.27, 141.48 50.97 C143.35 59.67, 141.04 69.81, 138.37 79.18 C135.71 88.55, 132.07 99.75, 125.47 107.19 C118.87 114.64, 108.32 120.12, 98.77 123.85 C89.23 127.58, 78.37 129.97, 68.23 129.56 C58.09 129.14, 47.13 125.53, 37.94 121.34 C28.75 117.15, 19.25 111.94, 13.07 104.42 C6.89 96.9, 2.57 85.45, 0.84 76.22 C-0.88 67, 0.18 57.7, 2.72 49.07 C5.26 40.44, 9.46 31.59, 16.07 24.46 C22.67 17.32, 33.05 10.49, 42.33 6.26 C51.62 2.04, 61.9 -1.02, 71.78 -0.89 C81.65 -0.76, 96.47 5.34, 101.6 7.02 C106.73 8.7, 102.85 8.13, 102.55 9.19" stroke="none" stroke-width="0" fill="#ced4da"></path><path d="M74.52 0.36 C84.28 -0.07, 96.55 3.26, 105.44 7.66 C114.34 12.07, 121.95 19.21, 127.88 26.8 C133.82 34.39, 139.22 44.11, 141.04 53.21 C142.86 62.31, 141.68 72.36, 138.81 81.39 C135.95 90.41, 130.48 100.38, 123.86 107.35 C117.24 114.31, 108.62 119.49, 99.07 123.17 C89.52 126.86, 77.04 129.75, 66.57 129.46 C56.1 129.16, 45 125.9, 36.26 121.4 C27.52 116.89, 20.07 110.11, 14.15 102.43 C8.24 94.76, 2.84 84.6, 0.78 75.36 C-1.29 66.13, -0.93 55.81, 1.78 47.05 C4.49 38.29, 9.95 29.87, 17.03 22.81 C24.1 15.76, 34.23 8.5, 44.24 4.73 C54.25 0.97, 71.56 0.68, 77.08 0.22 C82.61 -0.23, 77.61 0.81, 77.39 2.01 M49.23 3.93 C58.01 0.22, 70.56 -1.72, 80.98 -0.25 C91.41 1.22, 103.02 7.49, 111.78 12.74 C120.54 17.99, 128.78 23.42, 133.53 31.27 C138.29 39.11, 139.68 50.16, 140.31 59.8 C140.95 69.44, 140.81 80.46, 137.34 89.1 C133.88 97.74, 127.18 105.65, 119.52 111.64 C111.86 117.64, 101.37 122.1, 91.38 125.08 C81.38 128.05, 69.64 130.62, 59.55 129.49 C49.46 128.37, 39.07 123.94, 30.85 118.33 C22.62 112.72, 15.06 103.89, 10.19 95.81 C5.31 87.73, 2.71 78.89, 1.6 69.85 C0.5 60.82, 0.03 50.63, 3.56 41.6 C7.08 32.57, 15.1 22.37, 22.74 15.68 C30.38 8.98, 44.82 3.6, 49.4 1.42 C53.99 -0.75, 49.65 1.29, 50.23 2.62" stroke="#ced4da" stroke-width="1" fill="none"></path></g><g transform="translate(521.3838509830999 542.3489742059988) rotate(0 62.9727307027232 34.699259774969846)"><text x="62.9727307027232" y="50.39851954993969" font-family="Virgil, Segoe UI Emoji" font-size="51.40631077773322px" fill="#000000" text-anchor="middle" style="white-space: pre;" direction="ltr">cloud</text></g><g stroke-linecap="round"><g transform="translate(223.3595954173128 548.2112153967461) rotate(0 85.65737011141968 -1.1487312001370356)"><path d="M-0.6 -0.51 C28.07 -0.77, 143.27 -1.5, 171.91 -1.95 M1.29 -1.82 C29.88 -1.84, 143.16 -0.23, 171.37 -0.34" stroke="#000000" stroke-width="2" fill="none"></path></g><g transform="translate(223.3595954173128 548.2112153967461) rotate(0 85.65737011141968 -1.1487312001370356)"><path d="M142.28 11.04 C151.58 7.16, 157.67 5.55, 171.36 -1.92 M142.91 9.79 C150.62 6.57, 158.71 4.92, 170.7 -0.19" stroke="#000000" stroke-width="2" fill="none"></path></g><g transform="translate(223.3595954173128 548.2112153967461) rotate(0 85.65737011141968 -1.1487312001370356)"><path d="M142.4 -9.48 C151.61 -7.41, 157.66 -3.07, 171.36 -1.92 M143.04 -10.73 C150.57 -8.32, 158.63 -4.33, 170.7 -0.19" stroke="#000000" stroke-width="2" fill="none"></path></g></g><g stroke-linecap="round"><g transform="translate(713.2899724000905 462.6897307624068) rotate(0 186.60221792690447 -192.94792603520548)"><path d="M-0.25 0.06 C62.12 -64.24, 311.11 -321.84, 373.46 -385.95 M1.81 -0.96 C64.07 -65.09, 310.42 -320.44, 372.3 -384.7" stroke="#000000" stroke-width="2" fill="none"></path></g><g transform="translate(713.2899724000905 462.6897307624068) rotate(0 186.60221792690447 -192.94792603520548)"><path d="M360.22 -357.94 C362.11 -363.62, 367.18 -371.36, 372.61 -386.18 M360.29 -358.13 C364.33 -366.33, 369.48 -377.33, 373.11 -385.09" stroke="#000000" stroke-width="2" fill="none"></path></g><g transform="translate(713.2899724000905 462.6897307624068) rotate(0 186.60221792690447 -192.94792603520548)"><path d="M345.45 -372.18 C350.75 -374.52, 359.26 -378.94, 372.61 -386.18 M345.51 -372.37 C354.92 -375.43, 365.41 -381.26, 373.11 -385.09" stroke="#000000" stroke-width="2" fill="none"></path></g></g><g stroke-linecap="round"><g transform="translate(718.2284906620428 475.93741716790623) rotate(0 181.21696476491212 -92.39352364325663)"><path d="M-0.6 0.51 C59.36 -30.36, 300.34 -154.48, 360.82 -185.29 M1.28 -0.27 C61.53 -31.03, 302.95 -153.83, 363.04 -184.31" stroke="#000000" stroke-width="2" fill="none"></path></g><g transform="translate(718.2284906620428 475.93741716790623) rotate(0 181.21696476491212 -92.39352364325663)"><path d="M343.4 -163.98 C348.68 -169.82, 358.08 -180.76, 365.04 -183.28 M342.35 -161.75 C349.42 -170.88, 357.3 -178.88, 363.65 -184.18" stroke="#000000" stroke-width="2" fill="none"></path></g><g transform="translate(718.2284906620428 475.93741716790623) rotate(0 181.21696476491212 -92.39352364325663)"><path d="M334.1 -182.27 C342.95 -181.03, 355.93 -184.92, 365.04 -183.28 M333.06 -180.04 C343.57 -182.46, 354.89 -183.71, 363.65 -184.18" stroke="#000000" stroke-width="2" fill="none"></path></g></g><g stroke-linecap="round"><g transform="translate(720.0110212663539 494.8994507958405) rotate(0 180.6650364630159 -6.479205263533061)"><path d="M0.23 -0.23 C60.22 -2.09, 300.1 -9.1, 360.31 -10.91 M-1.11 -1.4 C59.21 -3.64, 302.13 -10.75, 362.44 -12.73" stroke="#000000" stroke-width="2" fill="none"></path></g><g transform="translate(720.0110212663539 494.8994507958405) rotate(0 180.6650364630159 -6.479205263533061)"><path d="M334.19 -3.45 C344.68 -5.24, 353.49 -9.99, 364.42 -11.23 M334.32 -1.57 C341.67 -3.99, 348.16 -5.92, 361.51 -13.03" stroke="#000000" stroke-width="2" fill="none"></path></g><g transform="translate(720.0110212663539 494.8994507958405) rotate(0 180.6650364630159 -6.479205263533061)"><path d="M333.56 -23.96 C344.3 -19.01, 353.32 -17.02, 364.42 -11.23 M333.69 -22.08 C341.1 -19.76, 347.73 -16.95, 361.51 -13.03" stroke="#000000" stroke-width="2" fill="none"></path></g></g><g stroke-linecap="round"><g transform="translate(722.5533507498255 507.1447741224653) rotate(0 180.09524427976743 97.40800502281883)"><path d="M-0.01 0.78 C60.19 33.22, 301.36 162.62, 361.67 194.68 M-1.48 0.14 C58.52 32.24, 300.25 160.66, 360.69 192.98" stroke="#000000" stroke-width="2" fill="none"></path></g><g transform="translate(722.5533507498255 507.1447741224653) rotate(0 180.09524427976743 97.40800502281883)"><path d="M332.28 188.67 C342.37 190.41, 349.82 190.04, 358.95 193.9 M330.81 189.16 C342.79 190.24, 353.51 192.34, 360.03 193.92" stroke="#000000" stroke-width="2" fill="none"></path></g><g transform="translate(722.5533507498255 507.1447741224653) rotate(0 180.09524427976743 97.40800502281883)"><path d="M341.93 170.56 C348.77 178.41, 352.96 184.15, 358.95 193.9 M340.46 171.05 C348.64 178.86, 355.73 187.77, 360.03 193.92" stroke="#000000" stroke-width="2" fill="none"></path></g></g><g stroke-linecap="round"><g transform="translate(765.3339850057573 572.3006347826449) rotate(0 157.557981552742 184.72280356636838)"><path d="M-0.49 -0.92 C51.56 60.57, 261.04 307.24, 313.5 368.92 M1.45 1.21 C53.75 62.89, 263.62 308.81, 315.61 370.37" stroke="#000000" stroke-width="2" fill="none"></path></g><g transform="translate(765.3339850057573 572.3006347826449) rotate(0 157.557981552742 184.72280356636838)"><path d="M288 353.59 C299.65 360.96, 310.5 366.22, 314.13 371.65 M288.74 355.7 C296.86 359.8, 302 363.22, 315.11 370.75" stroke="#000000" stroke-width="2" fill="none"></path></g><g transform="translate(765.3339850057573 572.3006347826449) rotate(0 157.557981552742 184.72280356636838)"><path d="M303.64 340.3 C309.04 352.91, 313.65 363.48, 314.13 371.65 M304.38 342.42 C308.66 349.67, 309.92 356.39, 315.11 370.75" stroke="#000000" stroke-width="2" fill="none"></path></g></g><g transform="translate(10 645.8526158981305) rotate(0 45 12.5)"><text x="0" y="18" font-family="Virgil, Segoe UI Emoji" font-size="20px" fill="#000000" text-anchor="start" style="white-space: pre;" direction="ltr">attacker</text></g><g stroke-linecap="round" transform="translate(497.142857142857 549.1383301838448) rotate(0 84.28571428571422 27.14285714285711)"><path d="M-1.83 -0.37 L167.03 1.54 L169.88 53.14 L-0.76 53.91" stroke="none" stroke-width="0" fill="#ced4da"></path><path d="M-0.72 1.92 C37.29 -0.72, 72.5 -1.7, 169.86 -1.84 M0.1 0.51 C61.67 2.35, 124.61 1.74, 168.36 -0.86 M168.13 -1.73 C166.71 21.68, 169.49 42.4, 169.64 53.34 M169.06 0.53 C169.26 13.42, 169.3 25.86, 169.53 53.33 M169.36 52.84 C115.53 53.43, 60.91 51.27, -0.39 53.95 M168.35 55.07 C106.62 54.21, 44.74 55.23, -0.97 54.94 M0.47 55.27 C0.11 36.47, 1.13 16.58, 1.19 -0.15 M-1 54.27 C0.58 42.34, -0.1 27.88, -0.48 0.49" stroke="#ced4da" stroke-width="2" fill="none"></path></g><g transform="translate(504.2857142857141 540.1383301838448) rotate(0 17.5 12.5)"><text x="0" y="18" font-family="Virgil, Segoe UI Emoji" font-size="20px" fill="#ced4da" text-anchor="start" style="white-space: pre;" direction="ltr">com</text></g><g transform="translate(527.142857142857 520.1383301838448) rotate(0 57 25)"><text x="57" y="18" font-family="Virgil, Segoe UI Emoji" font-size="20px" fill="#000000" text-anchor="middle" style="white-space: pre;" direction="ltr">compromised</text><text x="57" y="43" font-family="Virgil, Segoe UI Emoji" font-size="20px" fill="#000000" text-anchor="middle" style="white-space: pre;" direction="ltr">devices</text></g><g transform="translate(1045.928571428571 1135.8526158981304) rotate(0 95.5 12.5)"><text x="95.5" y="18" font-family="Virgil, Segoe UI Emoji" font-size="20px" fill="#000000" text-anchor="middle" style="white-space: pre;" direction="ltr">public dns resolvers</text></g><g stroke-linecap="round"><g transform="translate(1068.5965992779088 1061.9954727057059) rotate(0 63.77543832750223 25.439882759775912)"><path d="M-0.12 -0.81 C1.49 4.94, 1.48 29.83, 9.29 34.43 C17.11 39.04, 38 24.15, 46.76 26.8 C55.52 29.46, 56.95 50.69, 61.83 50.38 C66.71 50.07, 67.51 27.29, 76.02 24.95 C84.53 22.6, 104.14 39.89, 112.89 36.31 C121.65 32.74, 125.76 9.07, 128.55 3.48 M-1.64 1.38 C-0.17 7.25, 0.37 31.49, 8.29 35.42 C16.2 39.35, 36.87 22.27, 45.85 24.99 C54.83 27.7, 56.8 51.7, 62.17 51.69 C67.54 51.67, 69.47 27.55, 78.07 24.88 C86.67 22.22, 105.25 39.48, 113.77 35.71 C122.29 31.94, 126.63 7.85, 129.19 2.27" stroke="#000000" stroke-width="2" fill="none"></path></g></g><g stroke-linecap="round"><g transform="translate(1187.1428571428569 81.99547304098763) rotate(0 217.54141445937756 186.48528657756077)"><path d="M-0.11 -0.04 C72.53 62.2, 364.11 310.81, 436.71 373.14 M-1.63 -1.11 C70.87 61.27, 363.57 311.38, 436.29 374.08" stroke="#000000" stroke-width="2" fill="none"></path></g><g transform="translate(1187.1428571428569 81.99547304098763) rotate(0 217.54141445937756 186.48528657756077)"><path d="M408.15 365.17 C416.65 367.12, 428.33 370.87, 434.64 372.94 M409.01 364.37 C418.72 367.84, 429 370.61, 435.39 374.18" stroke="#000000" stroke-width="2" fill="none"></path></g><g transform="translate(1187.1428571428569 81.99547304098763) rotate(0 217.54141445937756 186.48528657756077)"><path d="M421.51 349.6 C425.03 357.29, 431.78 366.78, 434.64 372.94 M422.37 348.79 C427.07 358.07, 432.45 366.56, 435.39 374.18" stroke="#000000" stroke-width="2" fill="none"></path></g></g><g stroke-linecap="round"><g transform="translate(1187.1428571428569 289.13833018384474) rotate(0 214.71913993731135 93.09582624699587)"><path d="M-0.72 -1.05 C70.81 30.05, 358.55 154.74, 430.16 186.2 M1.1 1.02 C72.4 32.27, 357.61 156.47, 429.29 187.24" stroke="#000000" stroke-width="2" fill="none"></path></g><g transform="translate(1187.1428571428569 289.13833018384474) rotate(0 214.71913993731135 93.09582624699587)"><path d="M397.6 185.72 C409.2 184.49, 423.14 187.46, 428.34 189.22 M398.98 184.63 C409.58 185.54, 421.22 187.08, 430.27 186.44" stroke="#000000" stroke-width="2" fill="none"></path></g><g transform="translate(1187.1428571428569 289.13833018384474) rotate(0 214.71913993731135 93.09582624699587)"><path d="M405.75 166.89 C414.17 172.8, 425.01 182.96, 428.34 189.22 M407.13 165.79 C414.81 173.4, 423.58 181.58, 430.27 186.44" stroke="#000000" stroke-width="2" fill="none"></path></g></g><g stroke-linecap="round"><g transform="translate(1182.8571428571427 487.7097587552733) rotate(0 215.3554770074785 2.0766484879588916)"><path d="M-0.44 0.1 C71.31 0.84, 359.45 4.4, 431.15 5.05 M1.53 -0.89 C73.17 -0.55, 359.59 2.31, 430.81 3.33" stroke="#000000" stroke-width="2" fill="none"></path></g><g transform="translate(1182.8571428571427 487.7097587552733) rotate(0 215.3554770074785 2.0766484879588916)"><path d="M402.66 15.17 C413.71 9.42, 421.96 6.88, 432.2 5.13 M403.4 13.18 C410.42 10.07, 419.63 8.26, 430.82 4.2" stroke="#000000" stroke-width="2" fill="none"></path></g><g transform="translate(1182.8571428571427 487.7097587552733) rotate(0 215.3554770074785 2.0766484879588916)"><path d="M402.9 -5.35 C413.97 -3.86, 422.14 0.84, 432.2 5.13 M403.64 -7.34 C410.58 -4.6, 419.72 -0.56, 430.82 4.2" stroke="#000000" stroke-width="2" fill="none"></path></g></g><g stroke-linecap="round"><g transform="translate(1184.2857142857142 703.4240444695589) rotate(0 219.96720485826478 -95.19947309685404)"><path d="M1.03 0.01 C74.45 -31.62, 366.79 -157.28, 439.83 -188.87 M0.11 -1.03 C73.42 -33.05, 365.19 -158.64, 438.79 -190.41" stroke="#000000" stroke-width="2" fill="none"></path></g><g transform="translate(1184.2857142857142 703.4240444695589) rotate(0 219.96720485826478 -95.19947309685404)"><path d="M416.98 -170.11 C423.96 -176.24, 428.1 -179.13, 438.9 -191.11 M417.88 -170.46 C423.9 -176.65, 430.6 -182.23, 438.26 -189.84" stroke="#000000" stroke-width="2" fill="none"></path></g><g transform="translate(1184.2857142857142 703.4240444695589) rotate(0 219.96720485826478 -95.19947309685404)"><path d="M408.85 -188.96 C417.93 -190.61, 424.04 -188.94, 438.9 -191.11 M409.76 -189.31 C418.42 -189.8, 427.57 -189.68, 438.26 -189.84" stroke="#000000" stroke-width="2" fill="none"></path></g></g><g stroke-linecap="round"><g transform="translate(1185.7142857142853 937.7097587552734) rotate(0 222.40389851299784 -203.7291647975999)"><path d="M-1.06 0.33 C73.31 -67.82, 371.46 -339.89, 445.87 -407.78 M0.58 -0.55 C74.85 -68.03, 371.03 -339.07, 445 -406.58" stroke="#000000" stroke-width="2" fill="none"></path></g><g transform="translate(1185.7142857142853 937.7097587552734) rotate(0 222.40389851299784 -203.7291647975999)"><path d="M431.66 -379.73 C433.52 -387.52, 438.49 -393.47, 446.8 -408.39 M430.12 -380.34 C434.12 -386.01, 438.18 -392.17, 445.5 -406.53" stroke="#000000" stroke-width="2" fill="none"></path></g><g transform="translate(1185.7142857142853 937.7097587552734) rotate(0 222.40389851299784 -203.7291647975999)"><path d="M417.82 -394.88 C423.51 -398.5, 432.18 -400.4, 446.8 -408.39 M416.28 -395.49 C423.42 -397.52, 430.7 -400.16, 445.5 -406.53" stroke="#000000" stroke-width="2" fill="none"></path></g></g><g transform="translate(808.2142857142852 225.8526158981304) rotate(313.16763304046674 87.5 12.5)"><text x="87.5" y="18" font-family="Virgil, Segoe UI Emoji" font-size="20px" fill="#000000" text-anchor="middle" style="white-space: pre;" direction="ltr">forged DNS query</text></g><g transform="translate(816.7857142857139 342.3526158981304) rotate(332.6501242199302 87.5 12.5)"><text x="87.5" y="18" font-family="Virgil, Segoe UI Emoji" font-size="20px" fill="#000000" text-anchor="middle" style="white-space: pre;" direction="ltr">forged DNS query</text></g><g transform="translate(826.7857142857143 452.3526158981304) rotate(358.0250659891178 87.50000000000001 12.5)"><text x="87.5" y="18" font-family="Virgil, Segoe UI Emoji" font-size="20px" fill="#000000" text-anchor="middle" style="white-space: pre;" direction="ltr">forged DNS query</text></g><g transform="translate(821.0714285714283 566.6383301838446) rotate(27.34987578006978 87.50000000000001 12.5)"><text x="87.5" y="18" font-family="Virgil, Segoe UI Emoji" font-size="20px" fill="#000000" text-anchor="middle" style="white-space: pre;" direction="ltr">forged DNS query</text></g><g transform="translate(808.2142857142857 679.4954730409876) rotate(49.76364169072603 87.50000000000001 12.5)"><text x="87.5" y="18" font-family="Virgil, Segoe UI Emoji" font-size="20px" fill="#000000" text-anchor="middle" style="white-space: pre;" direction="ltr">forged DNS query</text></g><g transform="translate(1778.7142857142853 647.281187326702) rotate(0 27 12.5)"><text x="27" y="18" font-family="Virgil, Segoe UI Emoji" font-size="20px" fill="#000000" text-anchor="middle" style="white-space: pre;" direction="ltr">victim</text></g><g transform="translate(1217.4999999999995 210.13833018384474) rotate(40.84144965764162 172.5 12.5)"><text x="172.5" y="18" font-family="Virgil, Segoe UI Emoji" font-size="20px" fill="#000000" text-anchor="middle" style="white-space: pre;" direction="ltr">"legitimate" response to DNS query</text></g><g transform="translate(1196.0714285714284 329.49547304098763) rotate(23.498565675952307 172.5 12.5)"><text x="172.5" y="18" font-family="Virgil, Segoe UI Emoji" font-size="20px" fill="#000000" text-anchor="middle" style="white-space: pre;" direction="ltr">"legitimate" response to DNS query</text></g><g transform="translate(1193.2142857142853 450.92404446955896) rotate(0 172.5 12.5)"><text x="172.5" y="18" font-family="Virgil, Segoe UI Emoji" font-size="20px" fill="#000000" text-anchor="middle" style="white-space: pre;" direction="ltr">"legitimate" response to DNS query</text></g><g transform="translate(1196.0714285714282 583.7811873267019) rotate(337.01128319791945 172.5 12.499999999999972)"><text x="172.5" y="18" font-family="Virgil, Segoe UI Emoji" font-size="20px" fill="#000000" text-anchor="middle" style="white-space: pre;" direction="ltr">"legitimate" response to DNS query</text></g><g transform="translate(1214.6428571428569 702.3526158981302) rotate(317.48955292199895 172.5 12.5)"><text x="172.5" y="18" font-family="Virgil, Segoe UI Emoji" font-size="20px" fill="#000000" text-anchor="middle" style="white-space: pre;" direction="ltr">"legitimate" response to DNS query</text></g><g transform="translate(755.1428571428568 812.9954730409872) rotate(0 82 25)"><text x="82" y="18" font-family="Virgil, Segoe UI Emoji" font-size="20px" fill="#1864ab" text-anchor="middle" style="white-space: pre;" direction="ltr">generally a small</text><text x="82" y="43" font-family="Virgil, Segoe UI Emoji" font-size="20px" fill="#1864ab" text-anchor="middle" style="white-space: pre;" direction="ltr">query is sent</text></g><g transform="translate(1352.6428571428569 812.709758755273) rotate(0 109.5 37.5)"><text x="109.5" y="18" font-family="Virgil, Segoe UI Emoji" font-size="20px" fill="#1864ab" text-anchor="middle" style="white-space: pre;" direction="ltr">a larger response</text><text x="109.5" y="43" font-family="Virgil, Segoe UI Emoji" font-size="20px" fill="#1864ab" text-anchor="middle" style="white-space: pre;" direction="ltr">is produced as </text><text x="109.5" y="68" font-family="Virgil, Segoe UI Emoji" font-size="20px" fill="#1864ab" text-anchor="middle" style="white-space: pre;" direction="ltr">response to the query</text></g></svg>