<?xml version="1.0" encoding="utf-8" standalone="no"?>
<!DOCTYPE svg PUBLIC "-//W3C//DTD SVG 1.1//EN"
  "http://www.w3.org/Graphics/SVG/1.1/DTD/svg11.dtd">
<!-- Created with matplotlib (https://matplotlib.org/) -->
<svg height="720pt" version="1.1" viewBox="0 0 1080 720" width="1080pt" xmlns="http://www.w3.org/2000/svg" xmlns:xlink="http://www.w3.org/1999/xlink">
 <defs>
  <style type="text/css">
*{stroke-linecap:butt;stroke-linejoin:round;}
  </style>
 </defs>
 <g id="figure_1">
  <g id="patch_1">
   <path d="M 0 720 
L 1080 720 
L 1080 0 
L 0 0 
z
" style="fill:none;"/>
  </g>
  <g id="axes_1">
   <g id="patch_2">
    <path d="M 135 630 
L 972 630 
L 972 86.4 
L 135 86.4 
z
" style="fill:none;"/>
   </g>
   <g id="matplotlib.axis_1">
    <g id="xtick_1">
     <g id="line2d_1">
      <path clip-path="url(#p85bf9525cc)" d="M 169.221791 630 
L 169.221791 86.4 
" style="fill:none;stroke:#cccccc;stroke-linecap:round;stroke-width:0.8;"/>
     </g>
     <g id="text_1">
      <!-- 0 -->
      <defs>
       <path d="M 31.78125 66.40625 
Q 24.171875 66.40625 20.328125 58.90625 
Q 16.5 51.421875 16.5 36.375 
Q 16.5 21.390625 20.328125 13.890625 
Q 24.171875 6.390625 31.78125 6.390625 
Q 39.453125 6.390625 43.28125 13.890625 
Q 47.125 21.390625 47.125 36.375 
Q 47.125 51.421875 43.28125 58.90625 
Q 39.453125 66.40625 31.78125 66.40625 
z
M 31.78125 74.21875 
Q 44.046875 74.21875 50.515625 64.515625 
Q 56.984375 54.828125 56.984375 36.375 
Q 56.984375 17.96875 50.515625 8.265625 
Q 44.046875 -1.421875 31.78125 -1.421875 
Q 19.53125 -1.421875 13.0625 8.265625 
Q 6.59375 17.96875 6.59375 36.375 
Q 6.59375 54.828125 13.0625 64.515625 
Q 19.53125 74.21875 31.78125 74.21875 
z
" id="DejaVuSans-48"/>
      </defs>
      <g style="fill:#262626;" transform="translate(166.040541 644.598438)scale(0.1 -0.1)">
       <use xlink:href="#DejaVuSans-48"/>
      </g>
     </g>
    </g>
    <g id="xtick_2">
     <g id="line2d_2">
      <path clip-path="url(#p85bf9525cc)" d="M 288.711284 630 
L 288.711284 86.4 
" style="fill:none;stroke:#cccccc;stroke-linecap:round;stroke-width:0.8;"/>
     </g>
     <g id="text_2">
      <!-- 500 -->
      <defs>
       <path d="M 10.796875 72.90625 
L 49.515625 72.90625 
L 49.515625 64.59375 
L 19.828125 64.59375 
L 19.828125 46.734375 
Q 21.96875 47.46875 24.109375 47.828125 
Q 26.265625 48.1875 28.421875 48.1875 
Q 40.625 48.1875 47.75 41.5 
Q 54.890625 34.8125 54.890625 23.390625 
Q 54.890625 11.625 47.5625 5.09375 
Q 40.234375 -1.421875 26.90625 -1.421875 
Q 22.3125 -1.421875 17.546875 -0.640625 
Q 12.796875 0.140625 7.71875 1.703125 
L 7.71875 11.625 
Q 12.109375 9.234375 16.796875 8.0625 
Q 21.484375 6.890625 26.703125 6.890625 
Q 35.15625 6.890625 40.078125 11.328125 
Q 45.015625 15.765625 45.015625 23.390625 
Q 45.015625 31 40.078125 35.4375 
Q 35.15625 39.890625 26.703125 39.890625 
Q 22.75 39.890625 18.8125 39.015625 
Q 14.890625 38.140625 10.796875 36.28125 
z
" id="DejaVuSans-53"/>
      </defs>
      <g style="fill:#262626;" transform="translate(279.167534 644.598438)scale(0.1 -0.1)">
       <use xlink:href="#DejaVuSans-53"/>
       <use x="63.623047" xlink:href="#DejaVuSans-48"/>
       <use x="127.246094" xlink:href="#DejaVuSans-48"/>
      </g>
     </g>
    </g>
    <g id="xtick_3">
     <g id="line2d_3">
      <path clip-path="url(#p85bf9525cc)" d="M 408.200777 630 
L 408.200777 86.4 
" style="fill:none;stroke:#cccccc;stroke-linecap:round;stroke-width:0.8;"/>
     </g>
     <g id="text_3">
      <!-- 1000 -->
      <defs>
       <path d="M 12.40625 8.296875 
L 28.515625 8.296875 
L 28.515625 63.921875 
L 10.984375 60.40625 
L 10.984375 69.390625 
L 28.421875 72.90625 
L 38.28125 72.90625 
L 38.28125 8.296875 
L 54.390625 8.296875 
L 54.390625 0 
L 12.40625 0 
z
" id="DejaVuSans-49"/>
      </defs>
      <g style="fill:#262626;" transform="translate(395.475777 644.598438)scale(0.1 -0.1)">
       <use xlink:href="#DejaVuSans-49"/>
       <use x="63.623047" xlink:href="#DejaVuSans-48"/>
       <use x="127.246094" xlink:href="#DejaVuSans-48"/>
       <use x="190.869141" xlink:href="#DejaVuSans-48"/>
      </g>
     </g>
    </g>
    <g id="xtick_4">
     <g id="line2d_4">
      <path clip-path="url(#p85bf9525cc)" d="M 527.69027 630 
L 527.69027 86.4 
" style="fill:none;stroke:#cccccc;stroke-linecap:round;stroke-width:0.8;"/>
     </g>
     <g id="text_4">
      <!-- 1500 -->
      <g style="fill:#262626;" transform="translate(514.96527 644.598438)scale(0.1 -0.1)">
       <use xlink:href="#DejaVuSans-49"/>
       <use x="63.623047" xlink:href="#DejaVuSans-53"/>
       <use x="127.246094" xlink:href="#DejaVuSans-48"/>
       <use x="190.869141" xlink:href="#DejaVuSans-48"/>
      </g>
     </g>
    </g>
    <g id="xtick_5">
     <g id="line2d_5">
      <path clip-path="url(#p85bf9525cc)" d="M 647.179762 630 
L 647.179762 86.4 
" style="fill:none;stroke:#cccccc;stroke-linecap:round;stroke-width:0.8;"/>
     </g>
     <g id="text_5">
      <!-- 2000 -->
      <defs>
       <path d="M 19.1875 8.296875 
L 53.609375 8.296875 
L 53.609375 0 
L 7.328125 0 
L 7.328125 8.296875 
Q 12.9375 14.109375 22.625 23.890625 
Q 32.328125 33.6875 34.8125 36.53125 
Q 39.546875 41.84375 41.421875 45.53125 
Q 43.3125 49.21875 43.3125 52.78125 
Q 43.3125 58.59375 39.234375 62.25 
Q 35.15625 65.921875 28.609375 65.921875 
Q 23.96875 65.921875 18.8125 64.3125 
Q 13.671875 62.703125 7.8125 59.421875 
L 7.8125 69.390625 
Q 13.765625 71.78125 18.9375 73 
Q 24.125 74.21875 28.421875 74.21875 
Q 39.75 74.21875 46.484375 68.546875 
Q 53.21875 62.890625 53.21875 53.421875 
Q 53.21875 48.921875 51.53125 44.890625 
Q 49.859375 40.875 45.40625 35.40625 
Q 44.1875 33.984375 37.640625 27.21875 
Q 31.109375 20.453125 19.1875 8.296875 
z
" id="DejaVuSans-50"/>
      </defs>
      <g style="fill:#262626;" transform="translate(634.454762 644.598438)scale(0.1 -0.1)">
       <use xlink:href="#DejaVuSans-50"/>
       <use x="63.623047" xlink:href="#DejaVuSans-48"/>
       <use x="127.246094" xlink:href="#DejaVuSans-48"/>
       <use x="190.869141" xlink:href="#DejaVuSans-48"/>
      </g>
     </g>
    </g>
    <g id="xtick_6">
     <g id="line2d_6">
      <path clip-path="url(#p85bf9525cc)" d="M 766.669255 630 
L 766.669255 86.4 
" style="fill:none;stroke:#cccccc;stroke-linecap:round;stroke-width:0.8;"/>
     </g>
     <g id="text_6">
      <!-- 2500 -->
      <g style="fill:#262626;" transform="translate(753.944255 644.598438)scale(0.1 -0.1)">
       <use xlink:href="#DejaVuSans-50"/>
       <use x="63.623047" xlink:href="#DejaVuSans-53"/>
       <use x="127.246094" xlink:href="#DejaVuSans-48"/>
       <use x="190.869141" xlink:href="#DejaVuSans-48"/>
      </g>
     </g>
    </g>
    <g id="xtick_7">
     <g id="line2d_7">
      <path clip-path="url(#p85bf9525cc)" d="M 886.158748 630 
L 886.158748 86.4 
" style="fill:none;stroke:#cccccc;stroke-linecap:round;stroke-width:0.8;"/>
     </g>
     <g id="text_7">
      <!-- 3000 -->
      <defs>
       <path d="M 40.578125 39.3125 
Q 47.65625 37.796875 51.625 33 
Q 55.609375 28.21875 55.609375 21.1875 
Q 55.609375 10.40625 48.1875 4.484375 
Q 40.765625 -1.421875 27.09375 -1.421875 
Q 22.515625 -1.421875 17.65625 -0.515625 
Q 12.796875 0.390625 7.625 2.203125 
L 7.625 11.71875 
Q 11.71875 9.328125 16.59375 8.109375 
Q 21.484375 6.890625 26.8125 6.890625 
Q 36.078125 6.890625 40.9375 10.546875 
Q 45.796875 14.203125 45.796875 21.1875 
Q 45.796875 27.640625 41.28125 31.265625 
Q 36.765625 34.90625 28.71875 34.90625 
L 20.21875 34.90625 
L 20.21875 43.015625 
L 29.109375 43.015625 
Q 36.375 43.015625 40.234375 45.921875 
Q 44.09375 48.828125 44.09375 54.296875 
Q 44.09375 59.90625 40.109375 62.90625 
Q 36.140625 65.921875 28.71875 65.921875 
Q 24.65625 65.921875 20.015625 65.03125 
Q 15.375 64.15625 9.8125 62.3125 
L 9.8125 71.09375 
Q 15.4375 72.65625 20.34375 73.4375 
Q 25.25 74.21875 29.59375 74.21875 
Q 40.828125 74.21875 47.359375 69.109375 
Q 53.90625 64.015625 53.90625 55.328125 
Q 53.90625 49.265625 50.4375 45.09375 
Q 46.96875 40.921875 40.578125 39.3125 
z
" id="DejaVuSans-51"/>
      </defs>
      <g style="fill:#262626;" transform="translate(873.433748 644.598438)scale(0.1 -0.1)">
       <use xlink:href="#DejaVuSans-51"/>
       <use x="63.623047" xlink:href="#DejaVuSans-48"/>
       <use x="127.246094" xlink:href="#DejaVuSans-48"/>
       <use x="190.869141" xlink:href="#DejaVuSans-48"/>
      </g>
     </g>
    </g>
    <g id="text_8">
     <!-- Total number of bits -->
     <defs>
      <path d="M -0.296875 72.90625 
L 61.375 72.90625 
L 61.375 64.59375 
L 35.5 64.59375 
L 35.5 0 
L 25.59375 0 
L 25.59375 64.59375 
L -0.296875 64.59375 
z
" id="DejaVuSans-84"/>
      <path d="M 30.609375 48.390625 
Q 23.390625 48.390625 19.1875 42.75 
Q 14.984375 37.109375 14.984375 27.296875 
Q 14.984375 17.484375 19.15625 11.84375 
Q 23.34375 6.203125 30.609375 6.203125 
Q 37.796875 6.203125 41.984375 11.859375 
Q 46.1875 17.53125 46.1875 27.296875 
Q 46.1875 37.015625 41.984375 42.703125 
Q 37.796875 48.390625 30.609375 48.390625 
z
M 30.609375 56 
Q 42.328125 56 49.015625 48.375 
Q 55.71875 40.765625 55.71875 27.296875 
Q 55.71875 13.875 49.015625 6.21875 
Q 42.328125 -1.421875 30.609375 -1.421875 
Q 18.84375 -1.421875 12.171875 6.21875 
Q 5.515625 13.875 5.515625 27.296875 
Q 5.515625 40.765625 12.171875 48.375 
Q 18.84375 56 30.609375 56 
z
" id="DejaVuSans-111"/>
      <path d="M 18.3125 70.21875 
L 18.3125 54.6875 
L 36.8125 54.6875 
L 36.8125 47.703125 
L 18.3125 47.703125 
L 18.3125 18.015625 
Q 18.3125 11.328125 20.140625 9.421875 
Q 21.96875 7.515625 27.59375 7.515625 
L 36.8125 7.515625 
L 36.8125 0 
L 27.59375 0 
Q 17.1875 0 13.234375 3.875 
Q 9.28125 7.765625 9.28125 18.015625 
L 9.28125 47.703125 
L 2.6875 47.703125 
L 2.6875 54.6875 
L 9.28125 54.6875 
L 9.28125 70.21875 
z
" id="DejaVuSans-116"/>
      <path d="M 34.28125 27.484375 
Q 23.390625 27.484375 19.1875 25 
Q 14.984375 22.515625 14.984375 16.5 
Q 14.984375 11.71875 18.140625 8.90625 
Q 21.296875 6.109375 26.703125 6.109375 
Q 34.1875 6.109375 38.703125 11.40625 
Q 43.21875 16.703125 43.21875 25.484375 
L 43.21875 27.484375 
z
M 52.203125 31.203125 
L 52.203125 0 
L 43.21875 0 
L 43.21875 8.296875 
Q 40.140625 3.328125 35.546875 0.953125 
Q 30.953125 -1.421875 24.3125 -1.421875 
Q 15.921875 -1.421875 10.953125 3.296875 
Q 6 8.015625 6 15.921875 
Q 6 25.140625 12.171875 29.828125 
Q 18.359375 34.515625 30.609375 34.515625 
L 43.21875 34.515625 
L 43.21875 35.40625 
Q 43.21875 41.609375 39.140625 45 
Q 35.0625 48.390625 27.6875 48.390625 
Q 23 48.390625 18.546875 47.265625 
Q 14.109375 46.140625 10.015625 43.890625 
L 10.015625 52.203125 
Q 14.9375 54.109375 19.578125 55.046875 
Q 24.21875 56 28.609375 56 
Q 40.484375 56 46.34375 49.84375 
Q 52.203125 43.703125 52.203125 31.203125 
z
" id="DejaVuSans-97"/>
      <path d="M 9.421875 75.984375 
L 18.40625 75.984375 
L 18.40625 0 
L 9.421875 0 
z
" id="DejaVuSans-108"/>
      <path id="DejaVuSans-32"/>
      <path d="M 54.890625 33.015625 
L 54.890625 0 
L 45.90625 0 
L 45.90625 32.71875 
Q 45.90625 40.484375 42.875 44.328125 
Q 39.84375 48.1875 33.796875 48.1875 
Q 26.515625 48.1875 22.3125 43.546875 
Q 18.109375 38.921875 18.109375 30.90625 
L 18.109375 0 
L 9.078125 0 
L 9.078125 54.6875 
L 18.109375 54.6875 
L 18.109375 46.1875 
Q 21.34375 51.125 25.703125 53.5625 
Q 30.078125 56 35.796875 56 
Q 45.21875 56 50.046875 50.171875 
Q 54.890625 44.34375 54.890625 33.015625 
z
" id="DejaVuSans-110"/>
      <path d="M 8.5 21.578125 
L 8.5 54.6875 
L 17.484375 54.6875 
L 17.484375 21.921875 
Q 17.484375 14.15625 20.5 10.265625 
Q 23.53125 6.390625 29.59375 6.390625 
Q 36.859375 6.390625 41.078125 11.03125 
Q 45.3125 15.671875 45.3125 23.6875 
L 45.3125 54.6875 
L 54.296875 54.6875 
L 54.296875 0 
L 45.3125 0 
L 45.3125 8.40625 
Q 42.046875 3.421875 37.71875 1 
Q 33.40625 -1.421875 27.6875 -1.421875 
Q 18.265625 -1.421875 13.375 4.4375 
Q 8.5 10.296875 8.5 21.578125 
z
M 31.109375 56 
z
" id="DejaVuSans-117"/>
      <path d="M 52 44.1875 
Q 55.375 50.25 60.0625 53.125 
Q 64.75 56 71.09375 56 
Q 79.640625 56 84.28125 50.015625 
Q 88.921875 44.046875 88.921875 33.015625 
L 88.921875 0 
L 79.890625 0 
L 79.890625 32.71875 
Q 79.890625 40.578125 77.09375 44.375 
Q 74.3125 48.1875 68.609375 48.1875 
Q 61.625 48.1875 57.5625 43.546875 
Q 53.515625 38.921875 53.515625 30.90625 
L 53.515625 0 
L 44.484375 0 
L 44.484375 32.71875 
Q 44.484375 40.625 41.703125 44.40625 
Q 38.921875 48.1875 33.109375 48.1875 
Q 26.21875 48.1875 22.15625 43.53125 
Q 18.109375 38.875 18.109375 30.90625 
L 18.109375 0 
L 9.078125 0 
L 9.078125 54.6875 
L 18.109375 54.6875 
L 18.109375 46.1875 
Q 21.1875 51.21875 25.484375 53.609375 
Q 29.78125 56 35.6875 56 
Q 41.65625 56 45.828125 52.96875 
Q 50 49.953125 52 44.1875 
z
" id="DejaVuSans-109"/>
      <path d="M 48.6875 27.296875 
Q 48.6875 37.203125 44.609375 42.84375 
Q 40.53125 48.484375 33.40625 48.484375 
Q 26.265625 48.484375 22.1875 42.84375 
Q 18.109375 37.203125 18.109375 27.296875 
Q 18.109375 17.390625 22.1875 11.75 
Q 26.265625 6.109375 33.40625 6.109375 
Q 40.53125 6.109375 44.609375 11.75 
Q 48.6875 17.390625 48.6875 27.296875 
z
M 18.109375 46.390625 
Q 20.953125 51.265625 25.265625 53.625 
Q 29.59375 56 35.59375 56 
Q 45.5625 56 51.78125 48.09375 
Q 58.015625 40.1875 58.015625 27.296875 
Q 58.015625 14.40625 51.78125 6.484375 
Q 45.5625 -1.421875 35.59375 -1.421875 
Q 29.59375 -1.421875 25.265625 0.953125 
Q 20.953125 3.328125 18.109375 8.203125 
L 18.109375 0 
L 9.078125 0 
L 9.078125 75.984375 
L 18.109375 75.984375 
z
" id="DejaVuSans-98"/>
      <path d="M 56.203125 29.59375 
L 56.203125 25.203125 
L 14.890625 25.203125 
Q 15.484375 15.921875 20.484375 11.0625 
Q 25.484375 6.203125 34.421875 6.203125 
Q 39.59375 6.203125 44.453125 7.46875 
Q 49.3125 8.734375 54.109375 11.28125 
L 54.109375 2.78125 
Q 49.265625 0.734375 44.1875 -0.34375 
Q 39.109375 -1.421875 33.890625 -1.421875 
Q 20.796875 -1.421875 13.15625 6.1875 
Q 5.515625 13.8125 5.515625 26.8125 
Q 5.515625 40.234375 12.765625 48.109375 
Q 20.015625 56 32.328125 56 
Q 43.359375 56 49.78125 48.890625 
Q 56.203125 41.796875 56.203125 29.59375 
z
M 47.21875 32.234375 
Q 47.125 39.59375 43.09375 43.984375 
Q 39.0625 48.390625 32.421875 48.390625 
Q 24.90625 48.390625 20.390625 44.140625 
Q 15.875 39.890625 15.1875 32.171875 
z
" id="DejaVuSans-101"/>
      <path d="M 41.109375 46.296875 
Q 39.59375 47.171875 37.8125 47.578125 
Q 36.03125 48 33.890625 48 
Q 26.265625 48 22.1875 43.046875 
Q 18.109375 38.09375 18.109375 28.8125 
L 18.109375 0 
L 9.078125 0 
L 9.078125 54.6875 
L 18.109375 54.6875 
L 18.109375 46.1875 
Q 20.953125 51.171875 25.484375 53.578125 
Q 30.03125 56 36.53125 56 
Q 37.453125 56 38.578125 55.875 
Q 39.703125 55.765625 41.0625 55.515625 
z
" id="DejaVuSans-114"/>
      <path d="M 37.109375 75.984375 
L 37.109375 68.5 
L 28.515625 68.5 
Q 23.6875 68.5 21.796875 66.546875 
Q 19.921875 64.59375 19.921875 59.515625 
L 19.921875 54.6875 
L 34.71875 54.6875 
L 34.71875 47.703125 
L 19.921875 47.703125 
L 19.921875 0 
L 10.890625 0 
L 10.890625 47.703125 
L 2.296875 47.703125 
L 2.296875 54.6875 
L 10.890625 54.6875 
L 10.890625 58.5 
Q 10.890625 67.625 15.140625 71.796875 
Q 19.390625 75.984375 28.609375 75.984375 
z
" id="DejaVuSans-102"/>
      <path d="M 9.421875 54.6875 
L 18.40625 54.6875 
L 18.40625 0 
L 9.421875 0 
z
M 9.421875 75.984375 
L 18.40625 75.984375 
L 18.40625 64.59375 
L 9.421875 64.59375 
z
" id="DejaVuSans-105"/>
      <path d="M 44.28125 53.078125 
L 44.28125 44.578125 
Q 40.484375 46.53125 36.375 47.5 
Q 32.28125 48.484375 27.875 48.484375 
Q 21.1875 48.484375 17.84375 46.4375 
Q 14.5 44.390625 14.5 40.28125 
Q 14.5 37.15625 16.890625 35.375 
Q 19.28125 33.59375 26.515625 31.984375 
L 29.59375 31.296875 
Q 39.15625 29.25 43.1875 25.515625 
Q 47.21875 21.78125 47.21875 15.09375 
Q 47.21875 7.46875 41.1875 3.015625 
Q 35.15625 -1.421875 24.609375 -1.421875 
Q 20.21875 -1.421875 15.453125 -0.5625 
Q 10.6875 0.296875 5.421875 2 
L 5.421875 11.28125 
Q 10.40625 8.6875 15.234375 7.390625 
Q 20.0625 6.109375 24.8125 6.109375 
Q 31.15625 6.109375 34.5625 8.28125 
Q 37.984375 10.453125 37.984375 14.40625 
Q 37.984375 18.0625 35.515625 20.015625 
Q 33.0625 21.96875 24.703125 23.78125 
L 21.578125 24.515625 
Q 13.234375 26.265625 9.515625 29.90625 
Q 5.8125 33.546875 5.8125 39.890625 
Q 5.8125 47.609375 11.28125 51.796875 
Q 16.75 56 26.8125 56 
Q 31.78125 56 36.171875 55.265625 
Q 40.578125 54.546875 44.28125 53.078125 
z
" id="DejaVuSans-115"/>
     </defs>
     <g style="fill:#262626;" transform="translate(503.594531 658.276562)scale(0.1 -0.1)">
      <use xlink:href="#DejaVuSans-84"/>
      <use x="44.083984" xlink:href="#DejaVuSans-111"/>
      <use x="105.265625" xlink:href="#DejaVuSans-116"/>
      <use x="144.474609" xlink:href="#DejaVuSans-97"/>
      <use x="205.753906" xlink:href="#DejaVuSans-108"/>
      <use x="233.537109" xlink:href="#DejaVuSans-32"/>
      <use x="265.324219" xlink:href="#DejaVuSans-110"/>
      <use x="328.703125" xlink:href="#DejaVuSans-117"/>
      <use x="392.082031" xlink:href="#DejaVuSans-109"/>
      <use x="489.494141" xlink:href="#DejaVuSans-98"/>
      <use x="552.970703" xlink:href="#DejaVuSans-101"/>
      <use x="614.494141" xlink:href="#DejaVuSans-114"/>
      <use x="655.607422" xlink:href="#DejaVuSans-32"/>
      <use x="687.394531" xlink:href="#DejaVuSans-111"/>
      <use x="748.576172" xlink:href="#DejaVuSans-102"/>
      <use x="783.78125" xlink:href="#DejaVuSans-32"/>
      <use x="815.568359" xlink:href="#DejaVuSans-98"/>
      <use x="879.044922" xlink:href="#DejaVuSans-105"/>
      <use x="906.828125" xlink:href="#DejaVuSans-116"/>
      <use x="946.037109" xlink:href="#DejaVuSans-115"/>
     </g>
    </g>
   </g>
   <g id="matplotlib.axis_2">
    <g id="ytick_1">
     <g id="line2d_8">
      <path clip-path="url(#p85bf9525cc)" d="M 135 535.377016 
L 972 535.377016 
" style="fill:none;stroke:#cccccc;stroke-linecap:round;stroke-width:0.8;"/>
     </g>
     <g id="text_9">
      <!-- $\mathdefault{10^{-9}}$ -->
      <defs>
       <path d="M 10.59375 35.5 
L 73.1875 35.5 
L 73.1875 27.203125 
L 10.59375 27.203125 
z
" id="DejaVuSans-8722"/>
       <path d="M 10.984375 1.515625 
L 10.984375 10.5 
Q 14.703125 8.734375 18.5 7.8125 
Q 22.3125 6.890625 25.984375 6.890625 
Q 35.75 6.890625 40.890625 13.453125 
Q 46.046875 20.015625 46.78125 33.40625 
Q 43.953125 29.203125 39.59375 26.953125 
Q 35.25 24.703125 29.984375 24.703125 
Q 19.046875 24.703125 12.671875 31.3125 
Q 6.296875 37.9375 6.296875 49.421875 
Q 6.296875 60.640625 12.9375 67.421875 
Q 19.578125 74.21875 30.609375 74.21875 
Q 43.265625 74.21875 49.921875 64.515625 
Q 56.59375 54.828125 56.59375 36.375 
Q 56.59375 19.140625 48.40625 8.859375 
Q 40.234375 -1.421875 26.421875 -1.421875 
Q 22.703125 -1.421875 18.890625 -0.6875 
Q 15.09375 0.046875 10.984375 1.515625 
z
M 30.609375 32.421875 
Q 37.25 32.421875 41.125 36.953125 
Q 45.015625 41.5 45.015625 49.421875 
Q 45.015625 57.28125 41.125 61.84375 
Q 37.25 66.40625 30.609375 66.40625 
Q 23.96875 66.40625 20.09375 61.84375 
Q 16.21875 57.28125 16.21875 49.421875 
Q 16.21875 41.5 20.09375 36.953125 
Q 23.96875 32.421875 30.609375 32.421875 
z
" id="DejaVuSans-57"/>
      </defs>
      <g style="fill:#262626;" transform="translate(104.5 539.176235)scale(0.1 -0.1)">
       <use transform="translate(0 0.765625)" xlink:href="#DejaVuSans-49"/>
       <use transform="translate(63.623047 0.765625)" xlink:href="#DejaVuSans-48"/>
       <use transform="translate(128.203125 39.046875)scale(0.7)" xlink:href="#DejaVuSans-8722"/>
       <use transform="translate(186.855469 39.046875)scale(0.7)" xlink:href="#DejaVuSans-57"/>
      </g>
     </g>
    </g>
    <g id="ytick_2">
     <g id="line2d_9">
      <path clip-path="url(#p85bf9525cc)" d="M 135 422.157958 
L 972 422.157958 
" style="fill:none;stroke:#cccccc;stroke-linecap:round;stroke-width:0.8;"/>
     </g>
     <g id="text_10">
      <!-- $\mathdefault{10^{-7}}$ -->
      <defs>
       <path d="M 8.203125 72.90625 
L 55.078125 72.90625 
L 55.078125 68.703125 
L 28.609375 0 
L 18.3125 0 
L 43.21875 64.59375 
L 8.203125 64.59375 
z
" id="DejaVuSans-55"/>
      </defs>
      <g style="fill:#262626;" transform="translate(104.5 425.957176)scale(0.1 -0.1)">
       <use transform="translate(0 0.684375)" xlink:href="#DejaVuSans-49"/>
       <use transform="translate(63.623047 0.684375)" xlink:href="#DejaVuSans-48"/>
       <use transform="translate(128.203125 38.965625)scale(0.7)" xlink:href="#DejaVuSans-8722"/>
       <use transform="translate(186.855469 38.965625)scale(0.7)" xlink:href="#DejaVuSans-55"/>
      </g>
     </g>
    </g>
    <g id="ytick_3">
     <g id="line2d_10">
      <path clip-path="url(#p85bf9525cc)" d="M 135 308.938899 
L 972 308.938899 
" style="fill:none;stroke:#cccccc;stroke-linecap:round;stroke-width:0.8;"/>
     </g>
     <g id="text_11">
      <!-- $\mathdefault{10^{-5}}$ -->
      <g style="fill:#262626;" transform="translate(104.5 312.738117)scale(0.1 -0.1)">
       <use transform="translate(0 0.684375)" xlink:href="#DejaVuSans-49"/>
       <use transform="translate(63.623047 0.684375)" xlink:href="#DejaVuSans-48"/>
       <use transform="translate(128.203125 38.965625)scale(0.7)" xlink:href="#DejaVuSans-8722"/>
       <use transform="translate(186.855469 38.965625)scale(0.7)" xlink:href="#DejaVuSans-53"/>
      </g>
     </g>
    </g>
    <g id="ytick_4">
     <g id="line2d_11">
      <path clip-path="url(#p85bf9525cc)" d="M 135 195.71984 
L 972 195.71984 
" style="fill:none;stroke:#cccccc;stroke-linecap:round;stroke-width:0.8;"/>
     </g>
     <g id="text_12">
      <!-- $\mathdefault{10^{-3}}$ -->
      <g style="fill:#262626;" transform="translate(104.5 199.519059)scale(0.1 -0.1)">
       <use transform="translate(0 0.765625)" xlink:href="#DejaVuSans-49"/>
       <use transform="translate(63.623047 0.765625)" xlink:href="#DejaVuSans-48"/>
       <use transform="translate(128.203125 39.046875)scale(0.7)" xlink:href="#DejaVuSans-8722"/>
       <use transform="translate(186.855469 39.046875)scale(0.7)" xlink:href="#DejaVuSans-51"/>
      </g>
     </g>
    </g>
    <g id="text_13">
     <!-- Fraction of NaNs -->
     <defs>
      <path d="M 9.8125 72.90625 
L 51.703125 72.90625 
L 51.703125 64.59375 
L 19.671875 64.59375 
L 19.671875 43.109375 
L 48.578125 43.109375 
L 48.578125 34.8125 
L 19.671875 34.8125 
L 19.671875 0 
L 9.8125 0 
z
" id="DejaVuSans-70"/>
      <path d="M 48.78125 52.59375 
L 48.78125 44.1875 
Q 44.96875 46.296875 41.140625 47.34375 
Q 37.3125 48.390625 33.40625 48.390625 
Q 24.65625 48.390625 19.8125 42.84375 
Q 14.984375 37.3125 14.984375 27.296875 
Q 14.984375 17.28125 19.8125 11.734375 
Q 24.65625 6.203125 33.40625 6.203125 
Q 37.3125 6.203125 41.140625 7.25 
Q 44.96875 8.296875 48.78125 10.40625 
L 48.78125 2.09375 
Q 45.015625 0.34375 40.984375 -0.53125 
Q 36.96875 -1.421875 32.421875 -1.421875 
Q 20.0625 -1.421875 12.78125 6.34375 
Q 5.515625 14.109375 5.515625 27.296875 
Q 5.515625 40.671875 12.859375 48.328125 
Q 20.21875 56 33.015625 56 
Q 37.15625 56 41.109375 55.140625 
Q 45.0625 54.296875 48.78125 52.59375 
z
" id="DejaVuSans-99"/>
      <path d="M 9.8125 72.90625 
L 23.09375 72.90625 
L 55.421875 11.921875 
L 55.421875 72.90625 
L 64.984375 72.90625 
L 64.984375 0 
L 51.703125 0 
L 19.390625 60.984375 
L 19.390625 0 
L 9.8125 0 
z
" id="DejaVuSans-78"/>
     </defs>
     <g style="fill:#262626;" transform="translate(98.420312 399.307031)rotate(-90)scale(0.1 -0.1)">
      <use xlink:href="#DejaVuSans-70"/>
      <use x="50.269531" xlink:href="#DejaVuSans-114"/>
      <use x="91.382812" xlink:href="#DejaVuSans-97"/>
      <use x="152.662109" xlink:href="#DejaVuSans-99"/>
      <use x="207.642578" xlink:href="#DejaVuSans-116"/>
      <use x="246.851562" xlink:href="#DejaVuSans-105"/>
      <use x="274.634766" xlink:href="#DejaVuSans-111"/>
      <use x="335.816406" xlink:href="#DejaVuSans-110"/>
      <use x="399.195312" xlink:href="#DejaVuSans-32"/>
      <use x="430.982422" xlink:href="#DejaVuSans-111"/>
      <use x="492.164062" xlink:href="#DejaVuSans-102"/>
      <use x="527.369141" xlink:href="#DejaVuSans-32"/>
      <use x="559.15625" xlink:href="#DejaVuSans-78"/>
      <use x="633.960938" xlink:href="#DejaVuSans-97"/>
      <use x="695.240234" xlink:href="#DejaVuSans-78"/>
      <use x="770.044922" xlink:href="#DejaVuSans-115"/>
     </g>
    </g>
   </g>
   <g id="PathCollection_1">
    <defs>
     <path d="M 0 2.5 
C 0.663008 2.5 1.29895 2.236584 1.767767 1.767767 
C 2.236584 1.29895 2.5 0.663008 2.5 0 
C 2.5 -0.663008 2.236584 -1.29895 1.767767 -1.767767 
C 1.29895 -2.236584 0.663008 -2.5 0 -2.5 
C -0.663008 -2.5 -1.29895 -2.236584 -1.767767 -1.767767 
C -2.236584 -1.29895 -2.5 -0.663008 -2.5 0 
C -2.5 0.663008 -2.236584 1.29895 -1.767767 1.767767 
C -1.29895 2.236584 -0.663008 2.5 0 2.5 
z
" id="m9217e9d48e" style="stroke:#ffffff;stroke-width:0.8;"/>
    </defs>
    <g clip-path="url(#p85bf9525cc)">
     <use style="fill:#333333;stroke:#ffffff;stroke-width:0.8;" x="173.045455" xlink:href="#m9217e9d48e" y="111.109091"/>
     <use style="fill:#333333;stroke:#ffffff;stroke-width:0.8;" x="176.869118" xlink:href="#m9217e9d48e" y="162.220584"/>
     <use style="fill:#333333;stroke:#ffffff;stroke-width:0.8;" x="184.516446" xlink:href="#m9217e9d48e" y="213.344082"/>
     <use style="fill:#333333;stroke:#ffffff;stroke-width:0.8;" x="199.811101" xlink:href="#m9217e9d48e" y="281.508747"/>
     <use style="fill:#333333;stroke:#ffffff;stroke-width:0.8;" x="207.458429" xlink:href="#m9217e9d48e" y="298.549914"/>
     <use style="fill:#333333;stroke:#ffffff;stroke-width:0.8;" x="215.105756" xlink:href="#m9217e9d48e" y="315.59108"/>
     <use style="fill:#333333;stroke:#ffffff;stroke-width:0.8;" x="222.753084" xlink:href="#m9217e9d48e" y="332.632247"/>
     <use style="fill:#333333;stroke:#ffffff;stroke-width:0.8;" x="230.400411" xlink:href="#m9217e9d48e" y="349.673413"/>
     <use style="fill:#333333;stroke:#ffffff;stroke-width:0.8;" x="238.047739" xlink:href="#m9217e9d48e" y="366.714579"/>
     <use style="fill:#333333;stroke:#ffffff;stroke-width:0.8;" x="245.695066" xlink:href="#m9217e9d48e" y="366.714579"/>
     <use style="fill:#333333;stroke:#ffffff;stroke-width:0.8;" x="253.342394" xlink:href="#m9217e9d48e" y="383.755746"/>
     <use style="fill:#333333;stroke:#ffffff;stroke-width:0.8;" x="260.989721" xlink:href="#m9217e9d48e" y="383.755746"/>
     <use style="fill:#333333;stroke:#ffffff;stroke-width:0.8;" x="268.637049" xlink:href="#m9217e9d48e" y="400.796912"/>
     <use style="fill:#333333;stroke:#ffffff;stroke-width:0.8;" x="276.284376" xlink:href="#m9217e9d48e" y="400.796912"/>
     <use style="fill:#333333;stroke:#ffffff;stroke-width:0.8;" x="283.931704" xlink:href="#m9217e9d48e" y="417.838079"/>
     <use style="fill:#333333;stroke:#ffffff;stroke-width:0.8;" x="291.579032" xlink:href="#m9217e9d48e" y="417.838079"/>
     <use style="fill:#333333;stroke:#ffffff;stroke-width:0.8;" x="299.226359" xlink:href="#m9217e9d48e" y="417.838079"/>
     <use style="fill:#333333;stroke:#ffffff;stroke-width:0.8;" x="306.873687" xlink:href="#m9217e9d48e" y="434.879245"/>
     <use style="fill:#333333;stroke:#ffffff;stroke-width:0.8;" x="314.521014" xlink:href="#m9217e9d48e" y="434.879245"/>
     <use style="fill:#333333;stroke:#ffffff;stroke-width:0.8;" x="322.168342" xlink:href="#m9217e9d48e" y="434.879245"/>
     <use style="fill:#333333;stroke:#ffffff;stroke-width:0.8;" x="329.815669" xlink:href="#m9217e9d48e" y="451.920411"/>
     <use style="fill:#333333;stroke:#ffffff;stroke-width:0.8;" x="337.462997" xlink:href="#m9217e9d48e" y="451.920411"/>
     <use style="fill:#333333;stroke:#ffffff;stroke-width:0.8;" x="345.110324" xlink:href="#m9217e9d48e" y="451.920411"/>
     <use style="fill:#333333;stroke:#ffffff;stroke-width:0.8;" x="352.757652" xlink:href="#m9217e9d48e" y="451.920411"/>
     <use style="fill:#333333;stroke:#ffffff;stroke-width:0.8;" x="360.404979" xlink:href="#m9217e9d48e" y="468.961578"/>
     <use style="fill:#333333;stroke:#ffffff;stroke-width:0.8;" x="368.052307" xlink:href="#m9217e9d48e" y="468.961578"/>
     <use style="fill:#333333;stroke:#ffffff;stroke-width:0.8;" x="375.699635" xlink:href="#m9217e9d48e" y="468.961578"/>
     <use style="fill:#333333;stroke:#ffffff;stroke-width:0.8;" x="383.346962" xlink:href="#m9217e9d48e" y="468.961578"/>
     <use style="fill:#333333;stroke:#ffffff;stroke-width:0.8;" x="390.99429" xlink:href="#m9217e9d48e" y="468.961578"/>
     <use style="fill:#333333;stroke:#ffffff;stroke-width:0.8;" x="398.641617" xlink:href="#m9217e9d48e" y="486.002744"/>
     <use style="fill:#333333;stroke:#ffffff;stroke-width:0.8;" x="406.288945" xlink:href="#m9217e9d48e" y="486.002744"/>
     <use style="fill:#333333;stroke:#ffffff;stroke-width:0.8;" x="413.936272" xlink:href="#m9217e9d48e" y="486.002744"/>
     <use style="fill:#333333;stroke:#ffffff;stroke-width:0.8;" x="421.5836" xlink:href="#m9217e9d48e" y="486.002744"/>
     <use style="fill:#333333;stroke:#ffffff;stroke-width:0.8;" x="429.230927" xlink:href="#m9217e9d48e" y="486.002744"/>
     <use style="fill:#333333;stroke:#ffffff;stroke-width:0.8;" x="436.878255" xlink:href="#m9217e9d48e" y="503.043911"/>
     <use style="fill:#333333;stroke:#ffffff;stroke-width:0.8;" x="444.525582" xlink:href="#m9217e9d48e" y="503.043911"/>
     <use style="fill:#333333;stroke:#ffffff;stroke-width:0.8;" x="452.17291" xlink:href="#m9217e9d48e" y="503.043911"/>
     <use style="fill:#333333;stroke:#ffffff;stroke-width:0.8;" x="459.820238" xlink:href="#m9217e9d48e" y="503.043911"/>
     <use style="fill:#333333;stroke:#ffffff;stroke-width:0.8;" x="467.467565" xlink:href="#m9217e9d48e" y="503.043911"/>
     <use style="fill:#333333;stroke:#ffffff;stroke-width:0.8;" x="475.114893" xlink:href="#m9217e9d48e" y="503.043911"/>
     <use style="fill:#333333;stroke:#ffffff;stroke-width:0.8;" x="482.76222" xlink:href="#m9217e9d48e" y="503.043911"/>
     <use style="fill:#333333;stroke:#ffffff;stroke-width:0.8;" x="490.409548" xlink:href="#m9217e9d48e" y="520.085077"/>
     <use style="fill:#333333;stroke:#ffffff;stroke-width:0.8;" x="498.056875" xlink:href="#m9217e9d48e" y="520.085077"/>
     <use style="fill:#333333;stroke:#ffffff;stroke-width:0.8;" x="505.704203" xlink:href="#m9217e9d48e" y="520.085077"/>
     <use style="fill:#333333;stroke:#ffffff;stroke-width:0.8;" x="513.35153" xlink:href="#m9217e9d48e" y="520.085077"/>
     <use style="fill:#333333;stroke:#ffffff;stroke-width:0.8;" x="520.998858" xlink:href="#m9217e9d48e" y="520.085077"/>
     <use style="fill:#333333;stroke:#ffffff;stroke-width:0.8;" x="528.646185" xlink:href="#m9217e9d48e" y="520.085077"/>
     <use style="fill:#333333;stroke:#ffffff;stroke-width:0.8;" x="536.293513" xlink:href="#m9217e9d48e" y="520.085077"/>
     <use style="fill:#333333;stroke:#ffffff;stroke-width:0.8;" x="543.940841" xlink:href="#m9217e9d48e" y="520.085077"/>
     <use style="fill:#333333;stroke:#ffffff;stroke-width:0.8;" x="551.588168" xlink:href="#m9217e9d48e" y="537.126243"/>
     <use style="fill:#333333;stroke:#ffffff;stroke-width:0.8;" x="559.235496" xlink:href="#m9217e9d48e" y="537.126243"/>
     <use style="fill:#333333;stroke:#ffffff;stroke-width:0.8;" x="566.882823" xlink:href="#m9217e9d48e" y="537.126243"/>
     <use style="fill:#333333;stroke:#ffffff;stroke-width:0.8;" x="574.530151" xlink:href="#m9217e9d48e" y="537.126243"/>
     <use style="fill:#333333;stroke:#ffffff;stroke-width:0.8;" x="582.177478" xlink:href="#m9217e9d48e" y="537.126243"/>
     <use style="fill:#333333;stroke:#ffffff;stroke-width:0.8;" x="589.824806" xlink:href="#m9217e9d48e" y="537.126243"/>
     <use style="fill:#333333;stroke:#ffffff;stroke-width:0.8;" x="597.472133" xlink:href="#m9217e9d48e" y="537.126243"/>
     <use style="fill:#333333;stroke:#ffffff;stroke-width:0.8;" x="605.119461" xlink:href="#m9217e9d48e" y="537.126243"/>
     <use style="fill:#333333;stroke:#ffffff;stroke-width:0.8;" x="612.766788" xlink:href="#m9217e9d48e" y="537.126243"/>
     <use style="fill:#333333;stroke:#ffffff;stroke-width:0.8;" x="620.414116" xlink:href="#m9217e9d48e" y="554.16741"/>
     <use style="fill:#333333;stroke:#ffffff;stroke-width:0.8;" x="628.061444" xlink:href="#m9217e9d48e" y="554.16741"/>
     <use style="fill:#333333;stroke:#ffffff;stroke-width:0.8;" x="635.708771" xlink:href="#m9217e9d48e" y="554.16741"/>
     <use style="fill:#333333;stroke:#ffffff;stroke-width:0.8;" x="643.356099" xlink:href="#m9217e9d48e" y="554.16741"/>
     <use style="fill:#333333;stroke:#ffffff;stroke-width:0.8;" x="651.003426" xlink:href="#m9217e9d48e" y="554.16741"/>
     <use style="fill:#333333;stroke:#ffffff;stroke-width:0.8;" x="658.650754" xlink:href="#m9217e9d48e" y="554.16741"/>
     <use style="fill:#333333;stroke:#ffffff;stroke-width:0.8;" x="666.298081" xlink:href="#m9217e9d48e" y="554.16741"/>
     <use style="fill:#333333;stroke:#ffffff;stroke-width:0.8;" x="673.945409" xlink:href="#m9217e9d48e" y="554.16741"/>
     <use style="fill:#333333;stroke:#ffffff;stroke-width:0.8;" x="681.592736" xlink:href="#m9217e9d48e" y="554.16741"/>
     <use style="fill:#333333;stroke:#ffffff;stroke-width:0.8;" x="689.240064" xlink:href="#m9217e9d48e" y="554.16741"/>
     <use style="fill:#333333;stroke:#ffffff;stroke-width:0.8;" x="696.887392" xlink:href="#m9217e9d48e" y="554.16741"/>
     <use style="fill:#333333;stroke:#ffffff;stroke-width:0.8;" x="704.534719" xlink:href="#m9217e9d48e" y="571.208576"/>
     <use style="fill:#333333;stroke:#ffffff;stroke-width:0.8;" x="712.182047" xlink:href="#m9217e9d48e" y="571.208576"/>
     <use style="fill:#333333;stroke:#ffffff;stroke-width:0.8;" x="719.829374" xlink:href="#m9217e9d48e" y="571.208576"/>
     <use style="fill:#333333;stroke:#ffffff;stroke-width:0.8;" x="727.476702" xlink:href="#m9217e9d48e" y="571.208576"/>
     <use style="fill:#333333;stroke:#ffffff;stroke-width:0.8;" x="735.124029" xlink:href="#m9217e9d48e" y="571.208576"/>
     <use style="fill:#333333;stroke:#ffffff;stroke-width:0.8;" x="742.771357" xlink:href="#m9217e9d48e" y="571.208576"/>
     <use style="fill:#333333;stroke:#ffffff;stroke-width:0.8;" x="750.418684" xlink:href="#m9217e9d48e" y="571.208576"/>
     <use style="fill:#333333;stroke:#ffffff;stroke-width:0.8;" x="758.066012" xlink:href="#m9217e9d48e" y="571.208576"/>
     <use style="fill:#333333;stroke:#ffffff;stroke-width:0.8;" x="765.713339" xlink:href="#m9217e9d48e" y="571.208576"/>
     <use style="fill:#333333;stroke:#ffffff;stroke-width:0.8;" x="773.360667" xlink:href="#m9217e9d48e" y="571.208576"/>
     <use style="fill:#333333;stroke:#ffffff;stroke-width:0.8;" x="781.007995" xlink:href="#m9217e9d48e" y="571.208576"/>
     <use style="fill:#333333;stroke:#ffffff;stroke-width:0.8;" x="788.655322" xlink:href="#m9217e9d48e" y="571.208576"/>
     <use style="fill:#333333;stroke:#ffffff;stroke-width:0.8;" x="796.30265" xlink:href="#m9217e9d48e" y="571.208576"/>
     <use style="fill:#333333;stroke:#ffffff;stroke-width:0.8;" x="803.949977" xlink:href="#m9217e9d48e" y="588.249743"/>
     <use style="fill:#333333;stroke:#ffffff;stroke-width:0.8;" x="811.597305" xlink:href="#m9217e9d48e" y="588.249743"/>
     <use style="fill:#333333;stroke:#ffffff;stroke-width:0.8;" x="819.244632" xlink:href="#m9217e9d48e" y="588.249743"/>
     <use style="fill:#333333;stroke:#ffffff;stroke-width:0.8;" x="826.89196" xlink:href="#m9217e9d48e" y="588.249743"/>
     <use style="fill:#333333;stroke:#ffffff;stroke-width:0.8;" x="834.539287" xlink:href="#m9217e9d48e" y="588.249743"/>
     <use style="fill:#333333;stroke:#ffffff;stroke-width:0.8;" x="842.186615" xlink:href="#m9217e9d48e" y="588.249743"/>
     <use style="fill:#333333;stroke:#ffffff;stroke-width:0.8;" x="849.833942" xlink:href="#m9217e9d48e" y="588.249743"/>
     <use style="fill:#333333;stroke:#ffffff;stroke-width:0.8;" x="857.48127" xlink:href="#m9217e9d48e" y="588.249743"/>
     <use style="fill:#333333;stroke:#ffffff;stroke-width:0.8;" x="865.128598" xlink:href="#m9217e9d48e" y="588.249743"/>
     <use style="fill:#333333;stroke:#ffffff;stroke-width:0.8;" x="872.775925" xlink:href="#m9217e9d48e" y="588.249743"/>
     <use style="fill:#333333;stroke:#ffffff;stroke-width:0.8;" x="880.423253" xlink:href="#m9217e9d48e" y="588.249743"/>
     <use style="fill:#333333;stroke:#ffffff;stroke-width:0.8;" x="888.07058" xlink:href="#m9217e9d48e" y="588.249743"/>
     <use style="fill:#333333;stroke:#ffffff;stroke-width:0.8;" x="895.717908" xlink:href="#m9217e9d48e" y="588.249743"/>
     <use style="fill:#333333;stroke:#ffffff;stroke-width:0.8;" x="903.365235" xlink:href="#m9217e9d48e" y="588.249743"/>
     <use style="fill:#333333;stroke:#ffffff;stroke-width:0.8;" x="911.012563" xlink:href="#m9217e9d48e" y="588.249743"/>
     <use style="fill:#333333;stroke:#ffffff;stroke-width:0.8;" x="918.65989" xlink:href="#m9217e9d48e" y="588.249743"/>
     <use style="fill:#333333;stroke:#ffffff;stroke-width:0.8;" x="926.307218" xlink:href="#m9217e9d48e" y="605.290909"/>
     <use style="fill:#333333;stroke:#ffffff;stroke-width:0.8;" x="933.954545" xlink:href="#m9217e9d48e" y="605.290909"/>
    </g>
   </g>
   <g id="patch_3">
    <path d="M 135 630 
L 135 86.4 
" style="fill:none;stroke:#cccccc;stroke-linecap:square;stroke-linejoin:miter;stroke-width:0.8;"/>
   </g>
   <g id="patch_4">
    <path d="M 972 630 
L 972 86.4 
" style="fill:none;stroke:#cccccc;stroke-linecap:square;stroke-linejoin:miter;stroke-width:0.8;"/>
   </g>
   <g id="patch_5">
    <path d="M 135 630 
L 972 630 
" style="fill:none;stroke:#cccccc;stroke-linecap:square;stroke-linejoin:miter;stroke-width:0.8;"/>
   </g>
   <g id="patch_6">
    <path d="M 135 86.4 
L 972 86.4 
" style="fill:none;stroke:#cccccc;stroke-linecap:square;stroke-linejoin:miter;stroke-width:0.8;"/>
   </g>
  </g>
 </g>
 <defs>
  <clipPath id="p85bf9525cc">
   <rect height="543.6" width="837" x="135" y="86.4"/>
  </clipPath>
 </defs>
</svg>
